<svg width="167" height="168" viewBox="0 0 167 168" fill="none" xmlns="http://www.w3.org/2000/svg">
<rect width="167" height="167" transform="translate(0 0.5)" fill="#1E1E1E"/>
<path d="M19.24 118C19.24 107.248 19.24 96.368 19.24 85.36C19.24 74.352 19.24 63.472 19.24 52.72C25.704 52.72 32.232 52.72 38.824 52.72C45.416 52.72 51.944 52.72 58.408 52.72C58.408 55.152 58.408 57.648 58.408 60.208C58.408 62.768 58.408 65.264 58.408 67.696C54.696 67.696 50.952 67.696 47.176 67.696C43.464 67.696 39.752 67.696 36.04 67.696C36.04 69.296 36.04 70.896 36.04 72.496C36.04 74.032 36.04 75.6 36.04 77.2C39.432 77.2 42.856 77.2 46.312 77.2C49.768 77.2 53.16 77.2 56.488 77.2C56.488 79.568 56.488 81.968 56.488 84.4C56.488 86.832 56.488 89.264 56.488 91.696C53.16 91.696 49.768 91.696 46.312 91.696C42.856 91.696 39.432 91.696 36.04 91.696C36.04 93.552 36.04 95.44 36.04 97.36C36.04 99.28 36.04 101.168 36.04 103.024C39.752 103.024 43.464 103.024 47.176 103.024C50.952 103.024 54.696 103.024 58.408 103.024C58.408 105.456 58.408 107.952 58.408 110.512C58.408 113.072 58.408 115.568 58.408 118C51.944 118 45.416 118 38.824 118C32.232 118 25.704 118 19.24 118ZM65.4468 52.72C68.5828 52.72 71.7188 52.72 74.8548 52.72C78.0548 52.72 81.2228 52.72 84.3588 52.72C86.1508 55.728 87.9428 58.8 89.7348 61.936C91.5268 65.008 93.3188 68.048 95.1108 71.056C96.9028 68.048 98.6948 65.008 100.487 61.936C102.279 58.8 104.071 55.728 105.863 52.72C108.935 52.72 112.039 52.72 115.175 52.72C118.311 52.72 121.415 52.72 124.487 52.72C121.351 57.904 118.183 63.152 114.983 68.464C111.847 73.776 108.711 79.024 105.575 84.208C108.839 89.776 112.135 95.408 115.463 101.104C118.855 106.8 122.183 112.432 125.447 118C122.311 118 119.143 118 115.943 118C112.807 118 109.671 118 106.535 118C104.615 114.608 102.663 111.216 100.679 107.824C98.6948 104.368 96.7428 100.976 94.8228 97.648C92.8388 100.976 90.8228 104.368 88.7748 107.824C86.7908 111.216 84.8068 114.608 82.8228 118C79.7508 118 76.6468 118 73.5108 118C70.3748 118 67.2708 118 64.1988 118C67.5268 112.496 70.8548 106.928 74.1828 101.296C77.5748 95.6 80.9348 90 84.2628 84.496C81.1268 79.248 77.9908 73.968 74.8548 68.656C71.7188 63.28 68.5828 57.968 65.4468 52.72ZM139.985 119.536C138.129 119.536 136.401 119.088 134.801 118.192C133.265 117.296 132.049 116.08 131.153 114.544C130.257 113.008 129.809 111.344 129.809 109.552C129.809 107.76 130.257 106.128 131.153 104.656C132.049 103.12 133.265 101.904 134.801 101.008C136.401 100.112 138.129 99.664 139.985 99.664C141.841 99.664 143.505 100.112 144.977 101.008C146.513 101.904 147.729 103.12 148.625 104.656C149.585 106.128 150.065 107.76 150.065 109.552C150.065 111.344 149.585 113.008 148.625 114.544C147.729 116.08 146.513 117.296 144.977 118.192C143.505 119.088 141.841 119.536 139.985 119.536Z" fill="#B44E9E"/>
</svg>
