<svg width="132" height="68" viewBox="0 0 132 68" fill="none" xmlns="http://www.w3.org/2000/svg">
<path d="M0.24 66C0.24 55.248 0.24 44.368 0.24 33.36C0.24 22.352 0.24 11.472 0.24 0.719999C6.704 0.719999 13.232 0.719999 19.824 0.719999C26.416 0.719999 32.944 0.719999 39.408 0.719999C39.408 3.152 39.408 5.648 39.408 8.20799C39.408 10.768 39.408 13.264 39.408 15.696C35.696 15.696 31.952 15.696 28.176 15.696C24.464 15.696 20.752 15.696 17.04 15.696C17.04 17.296 17.04 18.896 17.04 20.496C17.04 22.032 17.04 23.6 17.04 25.2C20.432 25.2 23.856 25.2 27.312 25.2C30.768 25.2 34.16 25.2 37.488 25.2C37.488 27.568 37.488 29.968 37.488 32.4C37.488 34.832 37.488 37.264 37.488 39.696C34.16 39.696 30.768 39.696 27.312 39.696C23.856 39.696 20.432 39.696 17.04 39.696C17.04 41.552 17.04 43.44 17.04 45.36C17.04 47.28 17.04 49.168 17.04 51.024C20.752 51.024 24.464 51.024 28.176 51.024C31.952 51.024 35.696 51.024 39.408 51.024C39.408 53.456 39.408 55.952 39.408 58.512C39.408 61.072 39.408 63.568 39.408 66C32.944 66 26.416 66 19.824 66C13.232 66 6.704 66 0.24 66ZM46.4468 0.719999C49.5828 0.719999 52.7188 0.719999 55.8548 0.719999C59.0548 0.719999 62.2228 0.719999 65.3588 0.719999C67.1508 3.728 68.9428 6.8 70.7348 9.936C72.5268 13.008 74.3188 16.048 76.1108 19.056C77.9028 16.048 79.6948 13.008 81.4868 9.936C83.2788 6.8 85.0708 3.728 86.8628 0.719999C89.9348 0.719999 93.0388 0.719999 96.1748 0.719999C99.3108 0.719999 102.415 0.719999 105.487 0.719999C102.351 5.904 99.1828 11.152 95.9828 16.464C92.8468 21.776 89.7108 27.024 86.5748 32.208C89.8388 37.776 93.1348 43.408 96.4628 49.104C99.8548 54.8 103.183 60.432 106.447 66C103.311 66 100.143 66 96.9428 66C93.8068 66 90.6708 66 87.5348 66C85.6148 62.608 83.6628 59.216 81.6788 55.824C79.6948 52.368 77.7428 48.976 75.8228 45.648C73.8388 48.976 71.8228 52.368 69.7748 55.824C67.7908 59.216 65.8068 62.608 63.8228 66C60.7508 66 57.6468 66 54.5108 66C51.3748 66 48.2708 66 45.1988 66C48.5268 60.496 51.8548 54.928 55.1828 49.296C58.5748 43.6 61.9348 38 65.2628 32.496C62.1268 27.248 58.9908 21.968 55.8548 16.656C52.7188 11.28 49.5828 5.968 46.4468 0.719999ZM120.985 67.536C119.129 67.536 117.401 67.088 115.801 66.192C114.265 65.296 113.049 64.08 112.153 62.544C111.257 61.008 110.809 59.344 110.809 57.552C110.809 55.76 111.257 54.128 112.153 52.656C113.049 51.12 114.265 49.904 115.801 49.008C117.401 48.112 119.129 47.664 120.985 47.664C122.841 47.664 124.505 48.112 125.977 49.008C127.513 49.904 128.729 51.12 129.625 52.656C130.585 54.128 131.065 55.76 131.065 57.552C131.065 59.344 130.585 61.008 129.625 62.544C128.729 64.08 127.513 65.296 125.977 66.192C124.505 67.088 122.841 67.536 120.985 67.536Z" fill="#B44E9E"/>
</svg>
