<svg width="341" height="252" viewBox="0 0 341 252" fill="none" xmlns="http://www.w3.org/2000/svg">
<path d="M1.56 24.1284C1.56 21.4404 1.56 18.7204 1.56 15.9684C1.56 13.2164 1.56 10.4964 1.56 7.80842C2.264 7.80842 2.968 7.80842 3.672 7.80842C4.376 7.80842 5.072 7.80842 5.76 7.80842C5.76 8.84842 5.76 9.90442 5.76 10.9764C5.76 12.0324 5.76 13.0804 5.76 14.1204C6.576 13.0804 7.392 12.0324 8.208 10.9764C9.04 9.90442 9.864 8.84842 10.68 7.80842C11.464 7.80842 12.256 7.80842 13.056 7.80842C13.856 7.80842 14.648 7.80842 15.432 7.80842C14.424 9.08842 13.4 10.3844 12.36 11.6964C11.336 12.9924 10.32 14.2804 9.312 15.5604C10.368 16.9684 11.432 18.3924 12.504 19.8324C13.592 21.2724 14.664 22.7044 15.72 24.1284C14.888 24.1284 14.048 24.1284 13.2 24.1284C12.368 24.1284 11.536 24.1284 10.704 24.1284C9.888 22.9924 9.064 21.8564 8.232 20.7204C7.4 19.5684 6.576 18.4324 5.76 17.3124C5.76 18.4324 5.76 19.5684 5.76 20.7204C5.76 21.8564 5.76 22.9924 5.76 24.1284C5.072 24.1284 4.376 24.1284 3.672 24.1284C2.968 24.1284 2.264 24.1284 1.56 24.1284ZM23.5742 24.5124C22.4062 24.5124 21.3262 24.3044 20.3342 23.8884C19.3422 23.4564 18.4862 22.8564 17.7662 22.0884C17.0462 21.3204 16.4862 20.4164 16.0862 19.3764C15.6862 18.3204 15.4862 17.1764 15.4862 15.9444C15.4862 14.7124 15.6862 13.5764 16.0862 12.5364C16.4862 11.4964 17.0462 10.6004 17.7662 9.84842C18.4862 9.08042 19.3422 8.48842 20.3342 8.07242C21.3262 7.64042 22.4062 7.42442 23.5742 7.42442C24.7422 7.42442 25.8142 7.64042 26.7902 8.07242C27.7822 8.48842 28.6382 9.08042 29.3582 9.84842C30.0942 10.6004 30.6622 11.4964 31.0622 12.5364C31.4622 13.5764 31.6622 14.7124 31.6622 15.9444C31.6622 17.1764 31.4622 18.3204 31.0622 19.3764C30.6622 20.4164 30.0942 21.3204 29.3582 22.0884C28.6382 22.8564 27.7822 23.4564 26.7902 23.8884C25.8142 24.3044 24.7422 24.5124 23.5742 24.5124ZM23.5742 20.6244C24.3582 20.6244 25.0302 20.4324 25.5902 20.0484C26.1502 19.6484 26.5822 19.0964 26.8862 18.3924C27.2062 17.6884 27.3662 16.8724 27.3662 15.9444C27.3662 15.0164 27.2062 14.2084 26.8862 13.5204C26.5822 12.8324 26.1502 12.2964 25.5902 11.9124C25.0302 11.5124 24.3582 11.3124 23.5742 11.3124C22.8062 11.3124 22.1342 11.5044 21.5582 11.8884C20.9982 12.2724 20.5582 12.8164 20.2382 13.5204C19.9342 14.2084 19.7822 15.0164 19.7822 15.9444C19.7822 16.8724 19.9342 17.6884 20.2382 18.3924C20.5582 19.0964 20.9982 19.6484 21.5582 20.0484C22.1342 20.4324 22.8062 20.6244 23.5742 20.6244ZM33.9741 24.1284C33.9741 21.4404 33.9741 18.7204 33.9741 15.9684C33.9741 13.2164 33.9741 10.4964 33.9741 7.80842C34.9661 7.80842 35.9661 7.80842 36.9741 7.80842C37.9821 7.80842 38.9821 7.80842 39.9741 7.80842C40.4381 9.44042 40.8941 11.0964 41.3421 12.7764C41.8061 14.4404 42.2621 16.0884 42.7101 17.7204C43.1581 16.0884 43.6061 14.4404 44.0541 12.7764C44.5181 11.0964 44.9741 9.44042 45.4221 7.80842C46.4141 7.80842 47.4061 7.80842 48.3981 7.80842C49.3901 7.80842 50.3741 7.80842 51.3501 7.80842C51.3661 10.4964 51.3821 13.2164 51.3981 15.9684C51.4141 18.7204 51.4301 21.4404 51.4461 24.1284C50.7741 24.1284 50.0941 24.1284 49.4061 24.1284C48.7341 24.1284 48.0621 24.1284 47.3901 24.1284C47.3901 22.3044 47.3901 20.4644 47.3901 18.6084C47.3901 16.7364 47.3901 14.8884 47.3901 13.0644C46.9101 14.8884 46.4221 16.7364 45.9261 18.6084C45.4301 20.4644 44.9421 22.3044 44.4621 24.1284C43.8701 24.1284 43.2621 24.1284 42.6381 24.1284C42.0301 24.1284 41.4221 24.1284 40.8141 24.1284C40.3341 22.3364 39.8541 20.5284 39.3741 18.7044C38.8941 16.8644 38.4141 15.0484 37.9341 13.2564C37.9341 15.0484 37.9341 16.8644 37.9341 18.7044C37.9341 20.5284 37.9341 22.3364 37.9341 24.1284C37.2941 24.1284 36.6381 24.1284 35.9661 24.1284C35.2941 24.1284 34.6301 24.1284 33.9741 24.1284ZM54.5756 24.1284C54.5756 21.4404 54.5756 18.7204 54.5756 15.9684C54.5756 13.2164 54.5756 10.4964 54.5756 7.80842C55.5676 7.80842 56.5596 7.80842 57.5516 7.80842C58.5596 7.80842 59.5516 7.80842 60.5276 7.80842C61.7596 7.80842 62.8316 8.04842 63.7436 8.52842C64.6556 8.99242 65.3676 9.64842 65.8796 10.4964C66.3916 11.3444 66.6476 12.3364 66.6476 13.4724C66.6476 14.5924 66.3916 15.5764 65.8796 16.4244C65.3836 17.2724 64.6956 17.9284 63.8156 18.3924C62.9516 18.8564 61.9676 19.0884 60.8636 19.0884C60.5116 19.0884 60.1596 19.0884 59.8076 19.0884C59.4716 19.0884 59.1276 19.0884 58.7756 19.0884C58.7756 19.9204 58.7756 20.7604 58.7756 21.6084C58.7756 22.4564 58.7756 23.2964 58.7756 24.1284C58.0876 24.1284 57.3916 24.1284 56.6876 24.1284C55.9836 24.1284 55.2796 24.1284 54.5756 24.1284ZM60.5276 11.5764C60.2396 11.5764 59.9436 11.5764 59.6396 11.5764C59.3516 11.5764 59.0636 11.5764 58.7756 11.5764C58.7756 12.2164 58.7756 12.8644 58.7756 13.5204C58.7756 14.1604 58.7756 14.8004 58.7756 15.4404C59.0956 15.4404 59.4236 15.4404 59.7596 15.4404C60.1116 15.4404 60.4476 15.4404 60.7676 15.4404C61.2636 15.4404 61.6636 15.2564 61.9676 14.8884C62.2876 14.5204 62.4476 14.0644 62.4476 13.5204C62.4476 12.9604 62.2796 12.4964 61.9436 12.1284C61.6076 11.7604 61.1356 11.5764 60.5276 11.5764ZM68.8022 24.1284C68.8022 21.4404 68.8022 18.7204 68.8022 15.9684C68.8022 13.2164 68.8022 10.4964 68.8022 7.80842C70.4182 7.80842 72.0502 7.80842 73.6982 7.80842C75.3462 7.80842 76.9782 7.80842 78.5942 7.80842C78.5942 8.41642 78.5942 9.04042 78.5942 9.68042C78.5942 10.3204 78.5942 10.9444 78.5942 11.5524C77.6662 11.5524 76.7302 11.5524 75.7862 11.5524C74.8582 11.5524 73.9302 11.5524 73.0022 11.5524C73.0022 11.9524 73.0022 12.3524 73.0022 12.7524C73.0022 13.1364 73.0022 13.5284 73.0022 13.9284C73.8502 13.9284 74.7062 13.9284 75.5702 13.9284C76.4342 13.9284 77.2822 13.9284 78.1142 13.9284C78.1142 14.5204 78.1142 15.1204 78.1142 15.7284C78.1142 16.3364 78.1142 16.9444 78.1142 17.5524C77.2822 17.5524 76.4342 17.5524 75.5702 17.5524C74.7062 17.5524 73.8502 17.5524 73.0022 17.5524C73.0022 18.0164 73.0022 18.4884 73.0022 18.9684C73.0022 19.4484 73.0022 19.9204 73.0022 20.3844C73.9302 20.3844 74.8582 20.3844 75.7862 20.3844C76.7302 20.3844 77.6662 20.3844 78.5942 20.3844C78.5942 20.9924 78.5942 21.6164 78.5942 22.2564C78.5942 22.8964 78.5942 23.5204 78.5942 24.1284C76.9782 24.1284 75.3462 24.1284 73.6982 24.1284C72.0502 24.1284 70.4182 24.1284 68.8022 24.1284ZM84.3379 24.1284C84.3379 22.0644 84.3379 19.9844 84.3379 17.8884C84.3379 15.7764 84.3379 13.6884 84.3379 11.6244C83.7299 11.6244 83.1139 11.6244 82.4899 11.6244C81.8659 11.6244 81.2499 11.6244 80.6419 11.6244C80.6419 11.0004 80.6419 10.3684 80.6419 9.72842C80.6419 9.07242 80.6419 8.43242 80.6419 7.80842C82.5459 7.80842 84.4739 7.80842 86.4259 7.80842C88.3779 7.80842 90.3059 7.80842 92.2099 7.80842C92.2099 8.43242 92.2099 9.07242 92.2099 9.72842C92.2099 10.3684 92.2099 11.0004 92.2099 11.6244C91.6179 11.6244 91.0099 11.6244 90.3859 11.6244C89.7619 11.6244 89.1459 11.6244 88.5379 11.6244C88.5379 13.6884 88.5379 15.7764 88.5379 17.8884C88.5379 19.9844 88.5379 22.0644 88.5379 24.1284C87.8499 24.1284 87.1539 24.1284 86.4499 24.1284C85.7459 24.1284 85.0419 24.1284 84.3379 24.1284ZM94.4897 24.1284C94.4897 21.4404 94.4897 18.7204 94.4897 15.9684C94.4897 13.2164 94.4897 10.4964 94.4897 7.80842C96.1057 7.80842 97.7377 7.80842 99.3857 7.80842C101.034 7.80842 102.666 7.80842 104.282 7.80842C104.282 8.41642 104.282 9.04042 104.282 9.68042C104.282 10.3204 104.282 10.9444 104.282 11.5524C103.354 11.5524 102.418 11.5524 101.474 11.5524C100.546 11.5524 99.6177 11.5524 98.6897 11.5524C98.6897 11.9524 98.6897 12.3524 98.6897 12.7524C98.6897 13.1364 98.6897 13.5284 98.6897 13.9284C99.5377 13.9284 100.394 13.9284 101.258 13.9284C102.122 13.9284 102.97 13.9284 103.802 13.9284C103.802 14.5204 103.802 15.1204 103.802 15.7284C103.802 16.3364 103.802 16.9444 103.802 17.5524C102.97 17.5524 102.122 17.5524 101.258 17.5524C100.394 17.5524 99.5377 17.5524 98.6897 17.5524C98.6897 18.0164 98.6897 18.4884 98.6897 18.9684C98.6897 19.4484 98.6897 19.9204 98.6897 20.3844C99.6177 20.3844 100.546 20.3844 101.474 20.3844C102.418 20.3844 103.354 20.3844 104.282 20.3844C104.282 20.9924 104.282 21.6164 104.282 22.2564C104.282 22.8964 104.282 23.5204 104.282 24.1284C102.666 24.1284 101.034 24.1284 99.3857 24.1284C97.7377 24.1284 96.1057 24.1284 94.4897 24.1284ZM107.169 24.1284C107.169 21.4404 107.169 18.7204 107.169 15.9684C107.169 13.2164 107.169 10.4964 107.169 7.80842C107.873 7.80842 108.577 7.80842 109.281 7.80842C110.001 7.80842 110.705 7.80842 111.393 7.80842C112.241 9.32842 113.097 10.8644 113.961 12.4164C114.841 13.9684 115.705 15.5044 116.553 17.0244C116.553 15.5044 116.553 13.9684 116.553 12.4164C116.553 10.8644 116.553 9.32842 116.553 7.80842C117.241 7.80842 117.929 7.80842 118.617 7.80842C119.305 7.80842 119.993 7.80842 120.681 7.80842C120.681 10.4964 120.681 13.2164 120.681 15.9684C120.681 18.7204 120.681 21.4404 120.681 24.1284C119.993 24.1284 119.289 24.1284 118.569 24.1284C117.865 24.1284 117.161 24.1284 116.457 24.1284C115.609 22.6084 114.745 21.0724 113.865 19.5204C113.001 17.9684 112.145 16.4324 111.297 14.9124C111.297 16.4324 111.297 17.9684 111.297 19.5204C111.297 21.0724 111.297 22.6084 111.297 24.1284C110.609 24.1284 109.921 24.1284 109.233 24.1284C108.545 24.1284 107.857 24.1284 107.169 24.1284ZM122.994 15.9684C122.994 14.7364 123.186 13.6164 123.57 12.6084C123.97 11.5844 124.53 10.6964 125.25 9.94442C125.97 9.19242 126.834 8.60842 127.842 8.19242C128.85 7.77642 129.962 7.55242 131.178 7.52042C132.41 7.48842 133.722 7.68042 135.114 8.09642C135.114 8.76842 135.114 9.44842 135.114 10.1364C135.114 10.8084 135.114 11.4804 135.114 12.1524C134.17 11.7044 133.234 11.4484 132.306 11.3844C131.378 11.3204 130.538 11.4484 129.786 11.7684C129.034 12.0884 128.434 12.6004 127.986 13.3044C127.538 13.9924 127.314 14.8804 127.314 15.9684C127.314 17.0564 127.538 17.9524 127.986 18.6564C128.434 19.3444 129.034 19.8484 129.786 20.1684C130.538 20.4884 131.378 20.6164 132.306 20.5524C133.234 20.4884 134.17 20.2324 135.114 19.7844C135.114 20.4564 135.114 21.1364 135.114 21.8244C135.114 22.4964 135.114 23.1684 135.114 23.8404C133.722 24.2564 132.41 24.4484 131.178 24.4164C129.962 24.3844 128.85 24.1604 127.842 23.7444C126.834 23.3284 125.97 22.7444 125.25 21.9924C124.53 21.2404 123.97 20.3604 123.57 19.3524C123.186 18.3284 122.994 17.2004 122.994 15.9684ZM137.873 24.1284C137.873 21.4404 137.873 18.7204 137.873 15.9684C137.873 13.2164 137.873 10.4964 137.873 7.80842C139.489 7.80842 141.121 7.80842 142.769 7.80842C144.417 7.80842 146.049 7.80842 147.665 7.80842C147.665 8.41642 147.665 9.04042 147.665 9.68042C147.665 10.3204 147.665 10.9444 147.665 11.5524C146.737 11.5524 145.801 11.5524 144.857 11.5524C143.929 11.5524 143.001 11.5524 142.073 11.5524C142.073 11.9524 142.073 12.3524 142.073 12.7524C142.073 13.1364 142.073 13.5284 142.073 13.9284C142.921 13.9284 143.777 13.9284 144.641 13.9284C145.505 13.9284 146.353 13.9284 147.185 13.9284C147.185 14.5204 147.185 15.1204 147.185 15.7284C147.185 16.3364 147.185 16.9444 147.185 17.5524C146.353 17.5524 145.505 17.5524 144.641 17.5524C143.777 17.5524 142.921 17.5524 142.073 17.5524C142.073 18.0164 142.073 18.4884 142.073 18.9684C142.073 19.4484 142.073 19.9204 142.073 20.3844C143.001 20.3844 143.929 20.3844 144.857 20.3844C145.801 20.3844 146.737 20.3844 147.665 20.3844C147.665 20.9924 147.665 21.6164 147.665 22.2564C147.665 22.8964 147.665 23.5204 147.665 24.1284C146.049 24.1284 144.417 24.1284 142.769 24.1284C141.121 24.1284 139.489 24.1284 137.873 24.1284ZM150.552 24.1284C150.552 21.4404 150.552 18.7204 150.552 15.9684C150.552 13.2164 150.552 10.4964 150.552 7.80842C151.512 7.80842 152.472 7.80842 153.432 7.80842C154.408 7.80842 155.376 7.80842 156.336 7.80842C157.552 7.80842 158.616 8.04042 159.528 8.50442C160.44 8.95242 161.144 9.59242 161.64 10.4244C162.152 11.2404 162.408 12.2004 162.408 13.3044C162.408 14.2484 162.216 15.0884 161.832 15.8244C161.448 16.5604 160.928 17.1604 160.272 17.6244C160.912 18.6964 161.552 19.7844 162.192 20.8884C162.848 21.9764 163.496 23.0564 164.136 24.1284C163.352 24.1284 162.568 24.1284 161.784 24.1284C161 24.1284 160.216 24.1284 159.432 24.1284C158.936 23.2324 158.432 22.3204 157.92 21.3924C157.424 20.4644 156.92 19.5524 156.408 18.6564C156.136 18.6564 155.856 18.6564 155.568 18.6564C155.296 18.6564 155.024 18.6564 154.752 18.6564C154.752 19.5524 154.752 20.4644 154.752 21.3924C154.752 22.3204 154.752 23.2324 154.752 24.1284C154.064 24.1284 153.368 24.1284 152.664 24.1284C151.96 24.1284 151.256 24.1284 150.552 24.1284ZM156.336 11.6004C156.08 11.6004 155.816 11.6004 155.544 11.6004C155.288 11.6004 155.024 11.6004 154.752 11.6004C154.752 12.1924 154.752 12.7844 154.752 13.3764C154.752 13.9684 154.752 14.5604 154.752 15.1524C155.056 15.1524 155.36 15.1524 155.664 15.1524C155.968 15.1524 156.272 15.1524 156.576 15.1524C157.056 15.1524 157.448 14.9844 157.752 14.6484C158.056 14.2964 158.208 13.8724 158.208 13.3764C158.208 12.8644 158.04 12.4404 157.704 12.1044C157.384 11.7684 156.928 11.6004 156.336 11.6004Z" fill="#161719"/>
<path d="M14 38.1284C21.732 38.1284 28 44.3964 28 52.1284C28 59.8604 21.732 66.1284 14 66.1284C6.26801 66.1284 0 59.8604 0 52.1284C0 44.3964 6.26801 38.1284 14 38.1284ZM10.9619 43.1284C10.1787 43.1505 9.43537 43.459 8.88965 43.9878C8.34391 44.5167 8.03809 45.2245 8.03809 45.9614C8.03811 46.6983 8.34394 47.4062 8.88965 47.9351C9.43536 48.4638 10.1787 48.7723 10.9619 48.7944C10.1718 48.8073 9.41817 49.1111 8.86426 49.6411C8.31033 50.1711 8 50.8852 8 51.6284C8.00012 52.3714 8.31044 53.0848 8.86426 53.6147C9.41818 54.1448 10.1718 54.4486 10.9619 54.4614C10.1757 54.4795 9.42721 54.7865 8.87793 55.3159C8.32885 55.8453 8.02148 56.5559 8.02148 57.2954C8.02157 58.0349 8.32873 58.7456 8.87793 59.2749C9.42721 59.8043 10.1757 60.1103 10.9619 60.1284C11.7608 60.1279 12.527 59.8287 13.0918 59.2974C13.6565 58.766 13.9743 58.0457 13.9746 57.2944V48.7944H16.9873C17.7705 48.7723 18.5139 48.4639 19.0596 47.9351C19.6052 47.4062 19.9101 46.6983 19.9102 45.9614C19.9102 45.2246 19.6052 44.5166 19.0596 43.9878C18.5139 43.459 17.7705 43.1506 16.9873 43.1284H10.9619ZM16.9873 48.7944C15.3235 48.7944 13.9748 50.0628 13.9746 51.6274C13.9746 53.1922 15.3234 54.4614 16.9873 54.4614C18.6512 54.4613 20 53.1922 20 51.6274C19.9998 50.0628 18.651 48.7945 16.9873 48.7944Z" fill="#B44E9E"/>
<g clip-path="url(#clip0_9_682)">
<path d="M38 39.1284H280V66.1284H38V39.1284Z" fill="#B44E9E"/>
</g>
<rect x="38.5" y="39.1284" width="133" height="26" stroke="#B44E9E"/>
<path d="M189.536 46.9764V48.1604H184.688V51.9204H188.624V53.1044H184.688V58.1284H183.232V46.9764H189.536ZM192.047 47.9364C191.769 47.9364 191.535 47.8404 191.343 47.6484C191.151 47.4564 191.055 47.2218 191.055 46.9444C191.055 46.6671 191.151 46.4324 191.343 46.2404C191.535 46.0484 191.769 45.9524 192.047 45.9524C192.313 45.9524 192.537 46.0484 192.719 46.2404C192.911 46.4324 193.007 46.6671 193.007 46.9444C193.007 47.2218 192.911 47.4564 192.719 47.6484C192.537 47.8404 192.313 47.9364 192.047 47.9364ZM192.751 49.3604V58.1284H191.295V49.3604H192.751ZM198.848 49.2164C199.605 49.2164 200.267 49.3818 200.832 49.7124C201.408 50.0431 201.835 50.4591 202.112 50.9604V49.3604H203.584V58.3204C203.584 59.1204 203.413 59.8298 203.072 60.4484C202.731 61.0778 202.24 61.5684 201.6 61.9204C200.971 62.2724 200.235 62.4484 199.392 62.4484C198.24 62.4484 197.28 62.1764 196.512 61.6324C195.744 61.0884 195.291 60.3471 195.152 59.4084H196.592C196.752 59.9418 197.083 60.3684 197.584 60.6884C198.085 61.0191 198.688 61.1844 199.392 61.1844C200.192 61.1844 200.843 60.9338 201.344 60.4324C201.856 59.9311 202.112 59.2271 202.112 58.3204V56.4804C201.824 56.9924 201.397 57.4191 200.832 57.7604C200.267 58.1018 199.605 58.2724 198.848 58.2724C198.069 58.2724 197.36 58.0804 196.72 57.6964C196.091 57.3124 195.595 56.7738 195.232 56.0804C194.869 55.3871 194.688 54.5978 194.688 53.7124C194.688 52.8164 194.869 52.0324 195.232 51.3604C195.595 50.6778 196.091 50.1498 196.72 49.7764C197.36 49.4031 198.069 49.2164 198.848 49.2164ZM202.112 53.7284C202.112 53.0671 201.979 52.4911 201.712 52.0004C201.445 51.5098 201.083 51.1364 200.624 50.8804C200.176 50.6138 199.68 50.4804 199.136 50.4804C198.592 50.4804 198.096 50.6084 197.648 50.8644C197.2 51.1204 196.843 51.4938 196.576 51.9844C196.309 52.4751 196.176 53.0511 196.176 53.7124C196.176 54.3844 196.309 54.9711 196.576 55.4724C196.843 55.9631 197.2 56.3418 197.648 56.6084C198.096 56.8644 198.592 56.9924 199.136 56.9924C199.68 56.9924 200.176 56.8644 200.624 56.6084C201.083 56.3418 201.445 55.9631 201.712 55.4724C201.979 54.9711 202.112 54.3898 202.112 53.7284ZM216.589 49.2004C217.271 49.2004 217.879 49.3444 218.413 49.6324C218.946 49.9098 219.367 50.3311 219.677 50.8964C219.986 51.4618 220.141 52.1498 220.141 52.9604V58.1284H218.701V53.1684C218.701 52.2938 218.482 51.6271 218.045 51.1684C217.618 50.6991 217.037 50.4644 216.301 50.4644C215.543 50.4644 214.941 50.7098 214.493 51.2004C214.045 51.6804 213.821 52.3791 213.821 53.2964V58.1284H212.381V53.1684C212.381 52.2938 212.162 51.6271 211.725 51.1684C211.298 50.6991 210.717 50.4644 209.981 50.4644C209.223 50.4644 208.621 50.7098 208.173 51.2004C207.725 51.6804 207.501 52.3791 207.501 53.2964V58.1284H206.045V49.3604H207.501V50.6244C207.789 50.1658 208.173 49.8138 208.653 49.5684C209.143 49.3231 209.682 49.2004 210.269 49.2004C211.005 49.2004 211.655 49.3658 212.221 49.6964C212.786 50.0271 213.207 50.5124 213.485 51.1524C213.73 50.5338 214.135 50.0538 214.701 49.7124C215.266 49.3711 215.895 49.2004 216.589 49.2004ZM221.985 53.7124C221.985 52.8164 222.166 52.0324 222.529 51.3604C222.892 50.6778 223.388 50.1498 224.017 49.7764C224.657 49.4031 225.366 49.2164 226.145 49.2164C226.913 49.2164 227.58 49.3818 228.145 49.7124C228.71 50.0431 229.132 50.4591 229.409 50.9604V49.3604H230.881V58.1284H229.409V56.4964C229.121 57.0084 228.689 57.4351 228.113 57.7764C227.548 58.1071 226.886 58.2724 226.129 58.2724C225.35 58.2724 224.646 58.0804 224.017 57.6964C223.388 57.3124 222.892 56.7738 222.529 56.0804C222.166 55.3871 221.985 54.5978 221.985 53.7124ZM229.409 53.7284C229.409 53.0671 229.276 52.4911 229.009 52.0004C228.742 51.5098 228.38 51.1364 227.921 50.8804C227.473 50.6138 226.977 50.4804 226.433 50.4804C225.889 50.4804 225.393 50.6084 224.945 50.8644C224.497 51.1204 224.14 51.4938 223.873 51.9844C223.606 52.4751 223.473 53.0511 223.473 53.7124C223.473 54.3844 223.606 54.9711 223.873 55.4724C224.14 55.9631 224.497 56.3418 224.945 56.6084C225.393 56.8644 225.889 56.9924 226.433 56.9924C226.977 56.9924 227.473 56.8644 227.921 56.6084C228.38 56.3418 228.742 55.9631 229.009 55.4724C229.276 54.9711 229.409 54.3898 229.409 53.7284Z" fill="#1E1E1E"/>
<path d="M14 75.1284C21.732 75.1284 28 81.3964 28 89.1284C28 96.8604 21.732 103.128 14 103.128C6.26801 103.128 0 96.8604 0 89.1284C0 81.3964 6.26801 75.1284 14 75.1284ZM10.7002 82.9116L6.66895 94.0005H8.20508L9.10059 91.52H13.9648L14.8604 94.0005H16.3965L12.3809 82.9116H10.7002ZM18.1543 85.2319V94.0005H19.6104V85.2319H18.1543ZM13.5488 90.3364H9.5166L11.5322 84.7036L13.5488 90.3364ZM18.9062 81.8237C18.629 81.8237 18.3941 81.92 18.2021 82.1118C18.0102 82.3038 17.9141 82.5386 17.9141 82.8159C17.9141 83.0933 18.0101 83.328 18.2021 83.52C18.3941 83.7119 18.629 83.8081 18.9062 83.8081C19.1728 83.808 19.3969 83.7119 19.5781 83.52C19.77 83.328 19.8662 83.0932 19.8662 82.8159C19.8662 82.5386 19.7701 82.3038 19.5781 82.1118C19.3969 81.9199 19.1728 81.8238 18.9062 81.8237Z" fill="#B44E9E"/>
<g clip-path="url(#clip1_9_682)">
<rect x="38" y="76.1284" width="105" height="27" fill="#B44E9E"/>
</g>
<rect x="38.5" y="76.1284" width="133" height="26" stroke="#B44E9E"/>
<path d="M184.688 83.9764V95.1284H183.232V83.9764H184.688ZM188.626 83.2884V95.1284H187.17V83.2884H188.626ZM192.563 83.2884V95.1284H191.107V83.2884H192.563ZM202.821 86.3604V95.1284H201.365V93.8324C201.087 94.2804 200.698 94.6324 200.197 94.8884C199.706 95.1338 199.162 95.2564 198.565 95.2564C197.882 95.2564 197.269 95.1178 196.725 94.8404C196.181 94.5524 195.749 94.1258 195.429 93.5604C195.119 92.9951 194.965 92.3071 194.965 91.4964V86.3604H196.405V91.3044C196.405 92.1684 196.623 92.8351 197.061 93.3044C197.498 93.7631 198.095 93.9924 198.853 93.9924C199.631 93.9924 200.245 93.7524 200.693 93.2724C201.141 92.7924 201.365 92.0938 201.365 91.1764V86.3604H202.821ZM208.383 95.2724C207.711 95.2724 207.108 95.1604 206.575 94.9364C206.042 94.7018 205.62 94.3818 205.311 93.9764C205.002 93.5604 204.831 93.0858 204.799 92.5524H206.303C206.346 92.9898 206.548 93.3471 206.911 93.6244C207.284 93.9018 207.77 94.0404 208.367 94.0404C208.922 94.0404 209.359 93.9178 209.679 93.6724C209.999 93.4271 210.159 93.1178 210.159 92.7444C210.159 92.3604 209.988 92.0778 209.647 91.8964C209.306 91.7044 208.778 91.5178 208.063 91.3364C207.412 91.1658 206.879 90.9951 206.463 90.8244C206.058 90.6431 205.706 90.3818 205.407 90.0404C205.119 89.6884 204.975 89.2298 204.975 88.6644C204.975 88.2164 205.108 87.8058 205.375 87.4324C205.642 87.0591 206.02 86.7658 206.511 86.5524C207.002 86.3284 207.562 86.2164 208.191 86.2164C209.162 86.2164 209.946 86.4618 210.543 86.9524C211.14 87.4431 211.46 88.1151 211.503 88.9684H210.047C210.015 88.5098 209.828 88.1418 209.487 87.8644C209.156 87.5871 208.708 87.4484 208.143 87.4484C207.62 87.4484 207.204 87.5604 206.895 87.7844C206.586 88.0084 206.431 88.3018 206.431 88.6644C206.431 88.9524 206.522 89.1924 206.703 89.3844C206.895 89.5658 207.13 89.7151 207.407 89.8324C207.695 89.9391 208.09 90.0618 208.591 90.2004C209.22 90.3711 209.732 90.5418 210.127 90.7124C210.522 90.8724 210.858 91.1178 211.135 91.4484C211.423 91.7791 211.572 92.2111 211.583 92.7444C211.583 93.2244 211.45 93.6564 211.183 94.0404C210.916 94.4244 210.538 94.7284 210.047 94.9524C209.567 95.1658 209.012 95.2724 208.383 95.2724ZM215.414 87.5604V92.7284C215.414 93.1551 215.505 93.4591 215.686 93.6404C215.868 93.8111 216.182 93.8964 216.63 93.8964H217.702V95.1284H216.39C215.58 95.1284 214.972 94.9418 214.566 94.5684C214.161 94.1951 213.958 93.5818 213.958 92.7284V87.5604H212.822V86.3604H213.958V84.1524H215.414V86.3604H217.702V87.5604H215.414ZM220.922 87.7844C221.178 87.2831 221.541 86.8938 222.01 86.6164C222.49 86.3391 223.072 86.2004 223.754 86.2004V87.7044H223.37C221.738 87.7044 220.922 88.5898 220.922 90.3604V95.1284H219.466V86.3604H220.922V87.7844ZM224.891 90.7124C224.891 89.8164 225.072 89.0324 225.435 88.3604C225.798 87.6778 226.294 87.1498 226.923 86.7764C227.563 86.4031 228.272 86.2164 229.051 86.2164C229.819 86.2164 230.486 86.3818 231.051 86.7124C231.616 87.0431 232.038 87.4591 232.315 87.9604V86.3604H233.787V95.1284H232.315V93.4964C232.027 94.0084 231.595 94.4351 231.019 94.7764C230.454 95.1071 229.792 95.2724 229.035 95.2724C228.256 95.2724 227.552 95.0804 226.923 94.6964C226.294 94.3124 225.798 93.7738 225.435 93.0804C225.072 92.3871 224.891 91.5978 224.891 90.7124ZM232.315 90.7284C232.315 90.0671 232.182 89.4911 231.915 89.0004C231.648 88.5098 231.286 88.1364 230.827 87.8804C230.379 87.6138 229.883 87.4804 229.339 87.4804C228.795 87.4804 228.299 87.6084 227.851 87.8644C227.403 88.1204 227.046 88.4938 226.779 88.9844C226.512 89.4751 226.379 90.0511 226.379 90.7124C226.379 91.3844 226.512 91.9711 226.779 92.4724C227.046 92.9631 227.403 93.3418 227.851 93.6084C228.299 93.8644 228.795 93.9924 229.339 93.9924C229.883 93.9924 230.379 93.8644 230.827 93.6084C231.286 93.3418 231.648 92.9631 231.915 92.4724C232.182 91.9711 232.315 91.3898 232.315 90.7284ZM238.024 87.5604V92.7284C238.024 93.1551 238.114 93.4591 238.296 93.6404C238.477 93.8111 238.792 93.8964 239.24 93.8964H240.312V95.1284H239C238.189 95.1284 237.581 94.9418 237.176 94.5684C236.77 94.1951 236.568 93.5818 236.568 92.7284V87.5604H235.432V86.3604H236.568V84.1524H238.024V86.3604H240.312V87.5604H238.024ZM245.9 95.2724C245.078 95.2724 244.332 95.0858 243.66 94.7124C242.998 94.3391 242.476 93.8111 242.092 93.1284C241.718 92.4351 241.532 91.6351 241.532 90.7284C241.532 89.8324 241.724 89.0431 242.108 88.3604C242.502 87.6671 243.036 87.1391 243.708 86.7764C244.38 86.4031 245.132 86.2164 245.964 86.2164C246.796 86.2164 247.548 86.4031 248.22 86.7764C248.892 87.1391 249.42 87.6618 249.804 88.3444C250.198 89.0271 250.396 89.8218 250.396 90.7284C250.396 91.6351 250.193 92.4351 249.788 93.1284C249.393 93.8111 248.854 94.3391 248.172 94.7124C247.489 95.0858 246.732 95.2724 245.9 95.2724ZM245.9 93.9924C246.422 93.9924 246.913 93.8698 247.372 93.6244C247.83 93.3791 248.198 93.0111 248.476 92.5204C248.764 92.0298 248.908 91.4324 248.908 90.7284C248.908 90.0244 248.769 89.4271 248.492 88.9364C248.214 88.4458 247.852 88.0831 247.404 87.8484C246.956 87.6031 246.47 87.4804 245.948 87.4804C245.414 87.4804 244.924 87.6031 244.476 87.8484C244.038 88.0831 243.686 88.4458 243.42 88.9364C243.153 89.4271 243.02 90.0244 243.02 90.7284C243.02 91.4431 243.148 92.0458 243.404 92.5364C243.67 93.0271 244.022 93.3951 244.46 93.6404C244.897 93.8751 245.377 93.9924 245.9 93.9924ZM253.766 87.7844C254.022 87.2831 254.385 86.8938 254.854 86.6164C255.334 86.3391 255.915 86.2004 256.598 86.2004V87.7044H256.214C254.582 87.7044 253.766 88.5898 253.766 90.3604V95.1284H252.31V86.3604H253.766V87.7844Z" fill="#1E1E1E"/>
<path d="M14 112.128C21.732 112.128 28 118.396 28 126.128C28 133.86 21.732 140.128 14 140.128C6.26801 140.128 0 133.86 0 126.128C0 118.396 6.26801 112.128 14 112.128ZM18.5967 123.088C17.9675 123.088 17.4075 123.2 16.917 123.424C16.4264 123.638 16.0479 123.931 15.7812 124.304C15.5147 124.677 15.3809 125.088 15.3809 125.536C15.3809 126.101 15.5255 126.56 15.8135 126.912C16.1121 127.253 16.4638 127.514 16.8691 127.696C17.285 127.866 17.8183 128.037 18.4688 128.208C19.1832 128.389 19.7114 128.576 20.0527 128.768C20.394 128.949 20.5653 129.232 20.5654 129.616C20.5654 129.989 20.405 130.299 20.085 130.544C19.765 130.79 19.3278 130.912 18.7734 130.912C18.1761 130.912 17.6907 130.773 17.3174 130.496C16.9548 130.218 16.7517 129.862 16.709 129.424H15.2051C15.2371 129.957 15.4076 130.432 15.7168 130.848C16.0261 131.253 16.4481 131.573 16.9814 131.808C17.5147 132.032 18.1172 132.144 18.7891 132.144C19.4184 132.144 19.9731 132.037 20.4531 131.824C20.9437 131.6 21.3222 131.296 21.5889 130.912C21.8555 130.528 21.9893 130.096 21.9893 129.616C21.9785 129.083 21.829 128.65 21.541 128.32C21.2638 127.989 20.9277 127.744 20.5332 127.584C20.1385 127.414 19.6264 127.242 18.9971 127.072C18.4959 126.933 18.1014 126.81 17.8135 126.704C17.5363 126.586 17.3013 126.438 17.1094 126.256C16.928 126.064 16.8369 125.824 16.8369 125.536C16.837 125.173 16.9916 124.88 17.3008 124.656C17.6101 124.432 18.0263 124.32 18.5488 124.32C19.1142 124.32 19.5629 124.459 19.8936 124.736C20.2348 125.013 20.4211 125.382 20.4531 125.84H21.9092C21.8665 124.987 21.5466 124.314 20.9492 123.824C20.3519 123.333 19.5673 123.088 18.5967 123.088ZM6.41992 120.848V132H7.87598V127.344H10.0195C11.3206 127.344 12.2857 127.04 12.915 126.432C13.555 125.813 13.876 125.04 13.876 124.112C13.8759 123.152 13.5449 122.368 12.8838 121.76C12.2331 121.152 11.2782 120.848 10.0195 120.848H6.41992ZM10.0195 122.048C11.5981 122.048 12.3876 122.736 12.3877 124.112C12.3877 124.762 12.1954 125.264 11.8115 125.616C11.4275 125.968 10.8302 126.144 10.0195 126.144H7.87598V122.048H10.0195Z" fill="#B44E9E"/>
<g clip-path="url(#clip2_9_682)">
<rect x="38" y="113.128" width="111" height="27" fill="#B44E9E"/>
</g>
<rect x="38.5" y="113.128" width="133" height="26" stroke="#B44E9E"/>
<path d="M190.688 124.24C190.688 125.168 190.368 125.942 189.728 126.56C189.099 127.168 188.133 127.472 186.832 127.472H184.688V132.128H183.232V120.976H186.832C188.091 120.976 189.045 121.28 189.696 121.888C190.357 122.496 190.688 123.28 190.688 124.24ZM186.832 126.272C187.643 126.272 188.24 126.096 188.624 125.744C189.008 125.392 189.2 124.891 189.2 124.24C189.2 122.864 188.411 122.176 186.832 122.176H184.688V126.272H186.832ZM196.85 123.2C197.511 123.2 198.108 123.344 198.642 123.632C199.175 123.91 199.591 124.331 199.89 124.896C200.199 125.462 200.354 126.15 200.354 126.96V132.128H198.914V127.168C198.914 126.294 198.695 125.627 198.258 125.168C197.82 124.699 197.223 124.464 196.466 124.464C195.698 124.464 195.084 124.704 194.626 125.184C194.178 125.664 193.954 126.363 193.954 127.28V132.128H192.498V120.288H193.954V124.608C194.242 124.16 194.636 123.814 195.138 123.568C195.65 123.323 196.22 123.2 196.85 123.2ZM206.556 132.272C205.735 132.272 204.988 132.086 204.316 131.712C203.655 131.339 203.132 130.811 202.748 130.128C202.375 129.435 202.188 128.635 202.188 127.728C202.188 126.832 202.38 126.043 202.764 125.36C203.159 124.667 203.692 124.139 204.364 123.776C205.036 123.403 205.788 123.216 206.62 123.216C207.452 123.216 208.204 123.403 208.876 123.776C209.548 124.139 210.076 124.662 210.46 125.344C210.855 126.027 211.052 126.822 211.052 127.728C211.052 128.635 210.849 129.435 210.444 130.128C210.049 130.811 209.511 131.339 208.828 131.712C208.145 132.086 207.388 132.272 206.556 132.272ZM206.556 130.992C207.079 130.992 207.569 130.87 208.028 130.624C208.487 130.379 208.855 130.011 209.132 129.52C209.42 129.03 209.564 128.432 209.564 127.728C209.564 127.024 209.425 126.427 209.148 125.936C208.871 125.446 208.508 125.083 208.06 124.848C207.612 124.603 207.127 124.48 206.604 124.48C206.071 124.48 205.58 124.603 205.132 124.848C204.695 125.083 204.343 125.446 204.076 125.936C203.809 126.427 203.676 127.024 203.676 127.728C203.676 128.443 203.804 129.046 204.06 129.536C204.327 130.027 204.679 130.395 205.116 130.64C205.553 130.875 206.033 130.992 206.556 130.992ZM214.742 124.56V129.728C214.742 130.155 214.833 130.459 215.014 130.64C215.196 130.811 215.51 130.896 215.958 130.896H217.03V132.128H215.718C214.908 132.128 214.3 131.942 213.894 131.568C213.489 131.195 213.286 130.582 213.286 129.728V124.56H212.15V123.36H213.286V121.152H214.742V123.36H217.03V124.56H214.742ZM222.619 132.272C221.797 132.272 221.051 132.086 220.379 131.712C219.717 131.339 219.195 130.811 218.811 130.128C218.437 129.435 218.251 128.635 218.251 127.728C218.251 126.832 218.443 126.043 218.827 125.36C219.221 124.667 219.755 124.139 220.427 123.776C221.099 123.403 221.851 123.216 222.683 123.216C223.515 123.216 224.267 123.403 224.939 123.776C225.611 124.139 226.139 124.662 226.523 125.344C226.917 126.027 227.115 126.822 227.115 127.728C227.115 128.635 226.912 129.435 226.507 130.128C226.112 130.811 225.573 131.339 224.891 131.712C224.208 132.086 223.451 132.272 222.619 132.272ZM222.619 130.992C223.141 130.992 223.632 130.87 224.091 130.624C224.549 130.379 224.917 130.011 225.195 129.52C225.483 129.03 225.627 128.432 225.627 127.728C225.627 127.024 225.488 126.427 225.211 125.936C224.933 125.446 224.571 125.083 224.123 124.848C223.675 124.603 223.189 124.48 222.667 124.48C222.133 124.48 221.643 124.603 221.195 124.848C220.757 125.083 220.405 125.446 220.139 125.936C219.872 126.427 219.739 127.024 219.739 127.728C219.739 128.443 219.867 129.046 220.123 129.536C220.389 130.027 220.741 130.395 221.179 130.64C221.616 130.875 222.096 130.992 222.619 130.992ZM232.133 132.272C231.461 132.272 230.858 132.16 230.325 131.936C229.792 131.702 229.37 131.382 229.061 130.976C228.752 130.56 228.581 130.086 228.549 129.552H230.053C230.096 129.99 230.298 130.347 230.661 130.624C231.034 130.902 231.52 131.04 232.117 131.04C232.672 131.04 233.109 130.918 233.429 130.672C233.749 130.427 233.909 130.118 233.909 129.744C233.909 129.36 233.738 129.078 233.397 128.896C233.056 128.704 232.528 128.518 231.813 128.336C231.162 128.166 230.629 127.995 230.213 127.824C229.808 127.643 229.456 127.382 229.157 127.04C228.869 126.688 228.725 126.23 228.725 125.664C228.725 125.216 228.858 124.806 229.125 124.432C229.392 124.059 229.77 123.766 230.261 123.552C230.752 123.328 231.312 123.216 231.941 123.216C232.912 123.216 233.696 123.462 234.293 123.952C234.89 124.443 235.21 125.115 235.253 125.968H233.797C233.765 125.51 233.578 125.142 233.237 124.864C232.906 124.587 232.458 124.448 231.893 124.448C231.37 124.448 230.954 124.56 230.645 124.784C230.336 125.008 230.181 125.302 230.181 125.664C230.181 125.952 230.272 126.192 230.453 126.384C230.645 126.566 230.88 126.715 231.157 126.832C231.445 126.939 231.84 127.062 232.341 127.2C232.97 127.371 233.482 127.542 233.877 127.712C234.272 127.872 234.608 128.118 234.885 128.448C235.173 128.779 235.322 129.211 235.333 129.744C235.333 130.224 235.2 130.656 234.933 131.04C234.666 131.424 234.288 131.728 233.797 131.952C233.317 132.166 232.762 132.272 232.133 132.272ZM241.74 123.2C242.402 123.2 242.999 123.344 243.532 123.632C244.066 123.91 244.482 124.331 244.78 124.896C245.09 125.462 245.244 126.15 245.244 126.96V132.128H243.804V127.168C243.804 126.294 243.586 125.627 243.148 125.168C242.711 124.699 242.114 124.464 241.356 124.464C240.588 124.464 239.975 124.704 239.516 125.184C239.068 125.664 238.844 126.363 238.844 127.28V132.128H237.388V120.288H238.844V124.608C239.132 124.16 239.527 123.814 240.028 123.568C240.54 123.323 241.111 123.2 241.74 123.2ZM251.447 132.272C250.625 132.272 249.879 132.086 249.207 131.712C248.545 131.339 248.023 130.811 247.639 130.128C247.265 129.435 247.079 128.635 247.079 127.728C247.079 126.832 247.271 126.043 247.655 125.36C248.049 124.667 248.583 124.139 249.255 123.776C249.927 123.403 250.679 123.216 251.511 123.216C252.343 123.216 253.095 123.403 253.767 123.776C254.439 124.139 254.967 124.662 255.351 125.344C255.745 126.027 255.943 126.822 255.943 127.728C255.943 128.635 255.74 129.435 255.335 130.128C254.94 130.811 254.401 131.339 253.719 131.712C253.036 132.086 252.279 132.272 251.447 132.272ZM251.447 130.992C251.969 130.992 252.46 130.87 252.919 130.624C253.377 130.379 253.745 130.011 254.023 129.52C254.311 129.03 254.455 128.432 254.455 127.728C254.455 127.024 254.316 126.427 254.039 125.936C253.761 125.446 253.399 125.083 252.951 124.848C252.503 124.603 252.017 124.48 251.495 124.48C250.961 124.48 250.471 124.603 250.023 124.848C249.585 125.083 249.233 125.446 248.967 125.936C248.7 126.427 248.567 127.024 248.567 127.728C248.567 128.443 248.695 129.046 248.951 129.536C249.217 130.027 249.569 130.395 250.007 130.64C250.444 130.875 250.924 130.992 251.447 130.992ZM259.313 124.976C259.601 124.475 260.028 124.059 260.593 123.728C261.169 123.387 261.836 123.216 262.593 123.216C263.372 123.216 264.076 123.403 264.705 123.776C265.345 124.15 265.846 124.678 266.209 125.36C266.572 126.032 266.753 126.816 266.753 127.712C266.753 128.598 266.572 129.387 266.209 130.08C265.846 130.774 265.345 131.312 264.705 131.696C264.076 132.08 263.372 132.272 262.593 132.272C261.846 132.272 261.185 132.107 260.609 131.776C260.044 131.435 259.612 131.014 259.313 130.512V136.288H257.857V123.36H259.313V124.976ZM265.265 127.712C265.265 127.051 265.132 126.475 264.865 125.984C264.598 125.494 264.236 125.12 263.777 124.864C263.329 124.608 262.833 124.48 262.289 124.48C261.756 124.48 261.26 124.614 260.801 124.88C260.353 125.136 259.99 125.515 259.713 126.016C259.446 126.507 259.313 127.078 259.313 127.728C259.313 128.39 259.446 128.971 259.713 129.472C259.99 129.963 260.353 130.342 260.801 130.608C261.26 130.864 261.756 130.992 262.289 130.992C262.833 130.992 263.329 130.864 263.777 130.608C264.236 130.342 264.598 129.963 264.865 129.472C265.132 128.971 265.265 128.384 265.265 127.712Z" fill="#1E1E1E"/>
<path d="M14 149.128C21.732 149.128 28 155.396 28 163.128C28 170.86 21.732 177.128 14 177.128C6.26801 177.128 0 170.86 0 163.128C0 155.396 6.26801 149.128 14 149.128ZM7.61523 157.848V169H9.07129V164.344H11.2148C12.516 164.344 13.481 164.04 14.1104 163.432C14.7504 162.813 15.0713 162.04 15.0713 161.112C15.0712 160.152 14.7402 159.368 14.0791 158.76C13.4284 158.152 12.4735 157.848 11.2148 157.848H7.61523ZM21.168 160.072C20.4857 160.072 19.9046 160.211 19.4248 160.488C18.9556 160.765 18.5929 161.155 18.3369 161.656V160.232H16.8809V169H18.3369V164.232C18.3369 162.461 19.1524 161.576 20.7842 161.576H21.168V160.072ZM11.2148 159.048C12.7934 159.048 13.5829 159.736 13.583 161.112C13.583 161.762 13.3907 162.264 13.0068 162.616C12.6228 162.968 12.0255 163.144 11.2148 163.144H9.07129V159.048H11.2148Z" fill="#B44E9E"/>
<g clip-path="url(#clip3_9_682)">
<rect x="38" y="150.128" width="121" height="27" fill="#B44E9E"/>
</g>
<rect x="38.5" y="150.128" width="132" height="26" stroke="#B44E9E"/>
<path d="M189.688 161.24C189.688 162.168 189.368 162.942 188.728 163.56C188.099 164.168 187.133 164.472 185.832 164.472H183.688V169.128H182.232V157.976H185.832C187.091 157.976 188.045 158.28 188.696 158.888C189.357 159.496 189.688 160.28 189.688 161.24ZM185.832 163.272C186.643 163.272 187.24 163.096 187.624 162.744C188.008 162.392 188.2 161.891 188.2 161.24C188.2 159.864 187.411 159.176 185.832 159.176H183.688V163.272H185.832ZM192.954 161.784C193.21 161.283 193.572 160.894 194.042 160.616C194.522 160.339 195.103 160.2 195.786 160.2V161.704H195.402C193.77 161.704 192.954 162.59 192.954 164.36V169.128H191.498V160.36H192.954V161.784ZM205.466 164.408C205.466 164.686 205.45 164.979 205.418 165.288H198.41C198.464 166.152 198.757 166.83 199.29 167.32C199.834 167.8 200.49 168.04 201.258 168.04C201.888 168.04 202.41 167.896 202.826 167.608C203.253 167.31 203.552 166.915 203.722 166.424H205.29C205.056 167.267 204.586 167.955 203.882 168.488C203.178 169.011 202.304 169.272 201.258 169.272C200.426 169.272 199.68 169.086 199.018 168.712C198.368 168.339 197.856 167.811 197.482 167.128C197.109 166.435 196.922 165.635 196.922 164.728C196.922 163.822 197.104 163.027 197.466 162.344C197.829 161.662 198.336 161.139 198.986 160.776C199.648 160.403 200.405 160.216 201.258 160.216C202.09 160.216 202.826 160.398 203.466 160.76C204.106 161.123 204.597 161.624 204.938 162.264C205.29 162.894 205.466 163.608 205.466 164.408ZM203.962 164.104C203.962 163.55 203.84 163.075 203.594 162.68C203.349 162.275 203.013 161.971 202.586 161.768C202.17 161.555 201.706 161.448 201.194 161.448C200.458 161.448 199.829 161.683 199.306 162.152C198.794 162.622 198.501 163.272 198.426 164.104H203.962ZM217.932 160.2C218.615 160.2 219.223 160.344 219.756 160.632C220.29 160.91 220.711 161.331 221.02 161.896C221.33 162.462 221.484 163.15 221.484 163.96V169.128H220.044V164.168C220.044 163.294 219.826 162.627 219.388 162.168C218.962 161.699 218.38 161.464 217.644 161.464C216.887 161.464 216.284 161.71 215.836 162.2C215.388 162.68 215.164 163.379 215.164 164.296V169.128H213.724V164.168C213.724 163.294 213.506 162.627 213.068 162.168C212.642 161.699 212.06 161.464 211.324 161.464C210.567 161.464 209.964 161.71 209.516 162.2C209.068 162.68 208.844 163.379 208.844 164.296V169.128H207.388V160.36H208.844V161.624C209.132 161.166 209.516 160.814 209.996 160.568C210.487 160.323 211.026 160.2 211.612 160.2C212.348 160.2 212.999 160.366 213.564 160.696C214.13 161.027 214.551 161.512 214.828 162.152C215.074 161.534 215.479 161.054 216.044 160.712C216.61 160.371 217.239 160.2 217.932 160.2ZM224.625 158.936C224.347 158.936 224.113 158.84 223.921 158.648C223.729 158.456 223.633 158.222 223.633 157.944C223.633 157.667 223.729 157.432 223.921 157.24C224.113 157.048 224.347 156.952 224.625 156.952C224.891 156.952 225.115 157.048 225.297 157.24C225.489 157.432 225.585 157.667 225.585 157.944C225.585 158.222 225.489 158.456 225.297 158.648C225.115 158.84 224.891 158.936 224.625 158.936ZM225.329 160.36V169.128H223.873V160.36H225.329ZM235.81 164.408C235.81 164.686 235.794 164.979 235.762 165.288H228.754C228.807 166.152 229.101 166.83 229.634 167.32C230.178 167.8 230.834 168.04 231.602 168.04C232.231 168.04 232.754 167.896 233.17 167.608C233.597 167.31 233.895 166.915 234.066 166.424H235.634C235.399 167.267 234.93 167.955 234.226 168.488C233.522 169.011 232.647 169.272 231.602 169.272C230.77 169.272 230.023 169.086 229.362 168.712C228.711 168.339 228.199 167.811 227.826 167.128C227.453 166.435 227.266 165.635 227.266 164.728C227.266 163.822 227.447 163.027 227.81 162.344C228.173 161.662 228.679 161.139 229.33 160.776C229.991 160.403 230.749 160.216 231.602 160.216C232.434 160.216 233.17 160.398 233.81 160.76C234.45 161.123 234.941 161.624 235.282 162.264C235.634 162.894 235.81 163.608 235.81 164.408ZM234.306 164.104C234.306 163.55 234.183 163.075 233.938 162.68C233.693 162.275 233.357 161.971 232.93 161.768C232.514 161.555 232.05 161.448 231.538 161.448C230.802 161.448 230.173 161.683 229.65 162.152C229.138 162.622 228.845 163.272 228.77 164.104H234.306ZM239.188 161.784C239.444 161.283 239.807 160.894 240.276 160.616C240.756 160.339 241.337 160.2 242.02 160.2V161.704H241.636C240.004 161.704 239.188 162.59 239.188 164.36V169.128H237.732V160.36H239.188V161.784ZM251.701 164.408C251.701 164.686 251.685 164.979 251.653 165.288H244.645C244.698 166.152 244.991 166.83 245.525 167.32C246.069 167.8 246.725 168.04 247.493 168.04C248.122 168.04 248.645 167.896 249.061 167.608C249.487 167.31 249.786 166.915 249.957 166.424H251.525C251.29 167.267 250.821 167.955 250.117 168.488C249.413 169.011 248.538 169.272 247.493 169.272C246.661 169.272 245.914 169.086 245.253 168.712C244.602 168.339 244.09 167.811 243.717 167.128C243.343 166.435 243.157 165.635 243.157 164.728C243.157 163.822 243.338 163.027 243.701 162.344C244.063 161.662 244.57 161.139 245.221 160.776C245.882 160.403 246.639 160.216 247.493 160.216C248.325 160.216 249.061 160.398 249.701 160.76C250.341 161.123 250.831 161.624 251.173 162.264C251.525 162.894 251.701 163.608 251.701 164.408ZM250.197 164.104C250.197 163.55 250.074 163.075 249.829 162.68C249.583 162.275 249.247 161.971 248.821 161.768C248.405 161.555 247.941 161.448 247.429 161.448C246.693 161.448 246.063 161.683 245.541 162.152C245.029 162.622 244.735 163.272 244.661 164.104H250.197ZM265.344 161.24C265.344 162.168 265.024 162.942 264.384 163.56C263.755 164.168 262.79 164.472 261.488 164.472H259.344V169.128H257.888V157.976H261.488C262.747 157.976 263.702 158.28 264.352 158.888C265.014 159.496 265.344 160.28 265.344 161.24ZM261.488 163.272C262.299 163.272 262.896 163.096 263.28 162.744C263.664 162.392 263.856 161.891 263.856 161.24C263.856 159.864 263.067 159.176 261.488 159.176H259.344V163.272H261.488ZM268.61 161.784C268.866 161.283 269.229 160.894 269.698 160.616C270.178 160.339 270.759 160.2 271.442 160.2V161.704H271.058C269.426 161.704 268.61 162.59 268.61 164.36V169.128H267.154V160.36H268.61V161.784ZM276.947 169.272C276.125 169.272 275.379 169.086 274.707 168.712C274.045 168.339 273.523 167.811 273.139 167.128C272.765 166.435 272.579 165.635 272.579 164.728C272.579 163.832 272.771 163.043 273.155 162.36C273.549 161.667 274.083 161.139 274.755 160.776C275.427 160.403 276.179 160.216 277.011 160.216C277.843 160.216 278.595 160.403 279.267 160.776C279.939 161.139 280.467 161.662 280.851 162.344C281.245 163.027 281.443 163.822 281.443 164.728C281.443 165.635 281.24 166.435 280.835 167.128C280.44 167.811 279.901 168.339 279.219 168.712C278.536 169.086 277.779 169.272 276.947 169.272ZM276.947 167.992C277.469 167.992 277.96 167.87 278.419 167.624C278.877 167.379 279.245 167.011 279.523 166.52C279.811 166.03 279.955 165.432 279.955 164.728C279.955 164.024 279.816 163.427 279.539 162.936C279.261 162.446 278.899 162.083 278.451 161.848C278.003 161.603 277.517 161.48 276.995 161.48C276.461 161.48 275.971 161.603 275.523 161.848C275.085 162.083 274.733 162.446 274.467 162.936C274.2 163.427 274.067 164.024 274.067 164.728C274.067 165.443 274.195 166.046 274.451 166.536C274.717 167.027 275.069 167.395 275.507 167.64C275.944 167.875 276.424 167.992 276.947 167.992Z" fill="#1E1E1E"/>
<path d="M14 186.128C21.732 186.128 28 192.396 28 200.128C28 207.86 21.732 214.128 14 214.128C6.26801 214.128 0 207.86 0 200.128C0 192.396 6.26801 186.128 14 186.128ZM17.4521 203.302L13.6836 200.427L17.4521 197.552V203.302ZM20.5996 196.173C20.5996 195.869 20.4266 195.591 20.1543 195.459L17.5596 194.206C17.413 194.135 17.2481 194.113 17.0879 194.14C16.9276 194.168 16.7799 194.244 16.665 194.359L11.6982 198.912L9.53516 197.262C9.43776 197.188 9.31672 197.149 9.19434 197.155C9.0721 197.16 8.95572 197.209 8.86523 197.292L8.1709 197.926C8.11712 197.976 8.07433 198.036 8.04492 198.103C8.0155 198.17 8.00004 198.243 8 198.316C8 198.389 8.01555 198.462 8.04492 198.529C8.07437 198.596 8.11698 198.657 8.1709 198.707L10.0469 200.427L8.1709 202.148C8.11712 202.198 8.07434 202.258 8.04492 202.325C8.01551 202.392 8.00005 202.464 8 202.538C8 202.611 8.01546 202.684 8.04492 202.751C8.07436 202.818 8.11712 202.879 8.1709 202.928L8.86523 203.563C8.95565 203.646 9.07204 203.694 9.19434 203.7C9.31672 203.705 9.43765 203.667 9.53516 203.593L11.6982 201.942L16.665 206.497C16.7793 206.612 16.9267 206.69 17.0869 206.717C17.2473 206.745 17.413 206.722 17.5596 206.651L20.1543 205.395C20.4264 205.263 20.5995 204.986 20.5996 204.682V196.173Z" fill="#B44E9E"/>
<g clip-path="url(#clip4_9_682)">
<rect x="38" y="187.128" width="128" height="27" fill="#B44E9E"/>
</g>
<rect x="38.5" y="187.128" width="133" height="26" stroke="#B44E9E"/>
<path d="M192.448 194.976L188.24 206.128H186.56L182.352 194.976H183.904L187.408 204.592L190.912 194.976H192.448ZM197.581 206.24C196.845 206.24 196.183 206.112 195.597 205.856C195.021 205.59 194.567 205.227 194.237 204.768C193.906 204.299 193.735 203.76 193.725 203.152H195.277C195.33 203.675 195.543 204.118 195.917 204.48C196.301 204.832 196.855 205.008 197.581 205.008C198.274 205.008 198.818 204.838 199.213 204.496C199.618 204.144 199.821 203.696 199.821 203.152C199.821 202.726 199.703 202.379 199.469 202.112C199.234 201.846 198.941 201.643 198.589 201.504C198.237 201.366 197.762 201.216 197.165 201.056C196.429 200.864 195.837 200.672 195.389 200.48C194.951 200.288 194.573 199.99 194.253 199.584C193.943 199.168 193.789 198.614 193.789 197.92C193.789 197.312 193.943 196.774 194.253 196.304C194.562 195.835 194.994 195.472 195.549 195.216C196.114 194.96 196.759 194.832 197.485 194.832C198.53 194.832 199.383 195.094 200.045 195.616C200.717 196.139 201.095 196.832 201.181 197.696H199.581C199.527 197.27 199.303 196.896 198.909 196.576C198.514 196.246 197.991 196.08 197.341 196.08C196.733 196.08 196.237 196.24 195.853 196.56C195.469 196.87 195.277 197.307 195.277 197.872C195.277 198.278 195.389 198.608 195.613 198.864C195.847 199.12 196.13 199.318 196.461 199.456C196.802 199.584 197.277 199.734 197.885 199.904C198.621 200.107 199.213 200.31 199.661 200.512C200.109 200.704 200.493 201.008 200.812 201.424C201.133 201.83 201.293 202.384 201.293 203.088C201.293 203.632 201.149 204.144 200.861 204.624C200.573 205.104 200.146 205.494 199.581 205.792C199.015 206.091 198.349 206.24 197.581 206.24ZM202.891 200.544C202.891 199.456 203.136 198.48 203.627 197.616C204.118 196.742 204.784 196.059 205.627 195.568C206.48 195.078 207.424 194.832 208.459 194.832C209.675 194.832 210.736 195.126 211.643 195.712C212.55 196.299 213.211 197.131 213.627 198.208H211.883C211.574 197.536 211.126 197.019 210.539 196.656C209.963 196.294 209.27 196.112 208.459 196.112C207.68 196.112 206.982 196.294 206.363 196.656C205.744 197.019 205.259 197.536 204.907 198.208C204.555 198.87 204.379 199.648 204.379 200.544C204.379 201.43 204.555 202.208 204.907 202.88C205.259 203.542 205.744 204.054 206.363 204.416C206.982 204.779 207.68 204.96 208.459 204.96C209.27 204.96 209.963 204.784 210.539 204.432C211.126 204.07 211.574 203.552 211.883 202.88H213.627C213.211 203.947 212.55 204.774 211.643 205.36C210.736 205.936 209.675 206.224 208.459 206.224C207.424 206.224 206.48 205.984 205.627 205.504C204.784 205.014 204.118 204.336 203.627 203.472C203.136 202.608 202.891 201.632 202.891 200.544ZM219.619 206.272C218.797 206.272 218.051 206.086 217.379 205.712C216.717 205.339 216.195 204.811 215.811 204.128C215.437 203.435 215.251 202.635 215.251 201.728C215.251 200.832 215.443 200.043 215.827 199.36C216.221 198.667 216.755 198.139 217.427 197.776C218.099 197.403 218.851 197.216 219.683 197.216C220.515 197.216 221.267 197.403 221.939 197.776C222.611 198.139 223.139 198.662 223.523 199.344C223.917 200.027 224.115 200.822 224.115 201.728C224.115 202.635 223.912 203.435 223.507 204.128C223.112 204.811 222.573 205.339 221.891 205.712C221.208 206.086 220.451 206.272 219.619 206.272ZM219.619 204.992C220.141 204.992 220.632 204.87 221.091 204.624C221.549 204.379 221.917 204.011 222.195 203.52C222.483 203.03 222.627 202.432 222.627 201.728C222.627 201.024 222.488 200.427 222.211 199.936C221.933 199.446 221.571 199.083 221.123 198.848C220.675 198.603 220.189 198.48 219.667 198.48C219.133 198.48 218.643 198.603 218.195 198.848C217.757 199.083 217.405 199.446 217.139 199.936C216.872 200.427 216.739 201.024 216.739 201.728C216.739 202.443 216.867 203.046 217.123 203.536C217.389 204.027 217.741 204.395 218.179 204.64C218.616 204.875 219.096 204.992 219.619 204.992ZM225.485 201.712C225.485 200.816 225.666 200.032 226.029 199.36C226.392 198.678 226.888 198.15 227.517 197.776C228.157 197.403 228.872 197.216 229.661 197.216C230.344 197.216 230.978 197.376 231.565 197.696C232.152 198.006 232.6 198.416 232.909 198.928V194.288H234.381V206.128H232.909V204.48C232.621 205.003 232.194 205.435 231.629 205.776C231.064 206.107 230.402 206.272 229.645 206.272C228.866 206.272 228.157 206.08 227.517 205.696C226.888 205.312 226.392 204.774 226.029 204.08C225.666 203.387 225.485 202.598 225.485 201.712ZM232.909 201.728C232.909 201.067 232.776 200.491 232.509 200C232.242 199.51 231.88 199.136 231.421 198.88C230.973 198.614 230.477 198.48 229.933 198.48C229.389 198.48 228.893 198.608 228.445 198.864C227.997 199.12 227.64 199.494 227.373 199.984C227.106 200.475 226.973 201.051 226.973 201.712C226.973 202.384 227.106 202.971 227.373 203.472C227.64 203.963 227.997 204.342 228.445 204.608C228.893 204.864 229.389 204.992 229.933 204.992C230.477 204.992 230.973 204.864 231.421 204.608C231.88 204.342 232.242 203.963 232.509 203.472C232.776 202.971 232.909 202.39 232.909 201.728ZM244.841 201.408C244.841 201.686 244.825 201.979 244.793 202.288H237.785C237.839 203.152 238.132 203.83 238.665 204.32C239.209 204.8 239.865 205.04 240.633 205.04C241.263 205.04 241.785 204.896 242.201 204.608C242.628 204.31 242.927 203.915 243.097 203.424H244.665C244.431 204.267 243.961 204.955 243.257 205.488C242.553 206.011 241.679 206.272 240.633 206.272C239.801 206.272 239.055 206.086 238.393 205.712C237.743 205.339 237.231 204.811 236.857 204.128C236.484 203.435 236.297 202.635 236.297 201.728C236.297 200.822 236.479 200.027 236.841 199.344C237.204 198.662 237.711 198.139 238.361 197.776C239.023 197.403 239.78 197.216 240.633 197.216C241.465 197.216 242.201 197.398 242.841 197.76C243.481 198.123 243.972 198.624 244.313 199.264C244.665 199.894 244.841 200.608 244.841 201.408ZM243.337 201.104C243.337 200.55 243.215 200.075 242.969 199.68C242.724 199.275 242.388 198.971 241.961 198.768C241.545 198.555 241.081 198.448 240.569 198.448C239.833 198.448 239.204 198.683 238.681 199.152C238.169 199.622 237.876 200.272 237.801 201.104H243.337Z" fill="#1E1E1E"/>
<path d="M14 223.128C21.732 223.128 28 229.396 28 237.128C28 244.86 21.732 251.128 14 251.128C6.26801 251.128 0 244.86 0 237.128C0 229.396 6.26801 223.128 14 223.128ZM17.9941 231C17.81 230.998 17.626 231.015 17.4463 231.049C17.0265 231.127 16.4474 231.311 15.6895 231.711C14.3772 231.449 13.0124 231.448 11.7002 231.711C10.9423 231.311 10.3632 231.127 9.94238 231.049C9.76291 231.015 9.5794 230.998 9.39551 231C9.31186 231.003 9.22833 231.011 9.14648 231.026L9.13574 231.028L9.13086 231.03H9.12793L9.27539 231.475L9.12793 231.031C9.0525 231.049 8.9822 231.081 8.92285 231.125C8.86368 231.17 8.81629 231.224 8.78418 231.286C8.46745 231.897 8.40694 232.584 8.61328 233.229C8.07866 233.787 7.78745 234.488 7.79004 235.211C7.79004 236.648 8.28181 237.613 9.12012 238.234C9.70739 238.669 10.4207 238.9 11.1357 239.033C11.0221 239.317 10.9791 239.619 11.0107 239.918V240.471C10.5741 240.55 10.2714 240.525 10.0557 240.464C9.78623 240.388 9.57848 240.233 9.37988 240.011C9.27644 239.892 9.18035 239.767 9.09082 239.639L9.0293 239.553C8.95209 239.443 8.87216 239.333 8.78906 239.225C8.58508 238.965 8.2815 238.64 7.79199 238.529L7.27246 238.412L7 239.307L7.51953 239.424C7.60542 239.443 7.71682 239.513 7.90039 239.745C7.97113 239.836 8.03926 239.929 8.10449 240.024L8.17773 240.125C8.27865 240.266 8.3951 240.421 8.5293 240.573C8.80092 240.878 9.17105 241.186 9.7207 241.342C10.0964 241.45 10.5235 241.475 11.0107 241.411V243.137C11.0107 243.26 11.0675 243.378 11.168 243.464C11.2686 243.551 11.4055 243.6 11.5479 243.6H15.8428C15.985 243.6 16.1211 243.551 16.2217 243.464C16.3224 243.378 16.3789 243.26 16.3789 243.137V239.843C16.3789 239.551 16.3641 239.283 16.2686 239.035C16.9802 238.905 17.6875 238.674 18.2715 238.24C19.1089 237.615 19.5996 236.639 19.5996 235.195V235.194C19.5972 234.476 19.306 233.782 18.7754 233.229C18.9815 232.584 18.921 231.897 18.6045 231.287C18.5726 231.225 18.5257 231.171 18.4668 231.126C18.4077 231.082 18.3379 231.049 18.2627 231.031L18.1152 231.475C18.2623 231.031 18.2608 231.031 18.2598 231.031L18.2539 231.028L18.2441 231.026L18.1631 231.012C18.1072 231.004 18.0507 231.001 17.9941 231Z" fill="#B44E9E"/>
<g clip-path="url(#clip5_9_682)">
<rect x="38" y="224.128" width="130" height="26" fill="#B44E9E"/>
</g>
<rect x="38.5" y="224.128" width="133" height="26" stroke="#B44E9E"/>
<path d="M189.824 238.648H184.96L184.064 241.128H182.528L186.56 230.04H188.24L192.256 241.128H190.72L189.824 238.648ZM189.408 237.464L187.392 231.832L185.376 237.464H189.408ZM197.117 241.272C196.445 241.272 195.843 241.16 195.309 240.936C194.776 240.702 194.355 240.382 194.045 239.976C193.736 239.56 193.565 239.086 193.533 238.552H195.037C195.08 238.99 195.283 239.347 195.645 239.624C196.019 239.902 196.504 240.04 197.101 240.04C197.656 240.04 198.093 239.918 198.413 239.672C198.733 239.427 198.893 239.118 198.893 238.744C198.893 238.36 198.723 238.078 198.381 237.896C198.04 237.704 197.512 237.518 196.797 237.336C196.147 237.166 195.613 236.995 195.197 236.824C194.792 236.643 194.44 236.382 194.141 236.04C193.853 235.688 193.709 235.23 193.709 234.664C193.709 234.216 193.843 233.806 194.109 233.432C194.376 233.059 194.755 232.766 195.245 232.552C195.736 232.328 196.296 232.216 196.925 232.216C197.896 232.216 198.68 232.462 199.277 232.952C199.875 233.443 200.195 234.115 200.237 234.968H198.781C198.749 234.51 198.563 234.142 198.221 233.864C197.891 233.587 197.443 233.448 196.877 233.448C196.355 233.448 195.939 233.56 195.629 233.784C195.32 234.008 195.165 234.302 195.165 234.664C195.165 234.952 195.256 235.192 195.437 235.384C195.629 235.566 195.864 235.715 196.141 235.832C196.429 235.939 196.824 236.062 197.325 236.2C197.955 236.371 198.467 236.542 198.861 236.712C199.256 236.872 199.592 237.118 199.869 237.448C200.157 237.779 200.307 238.211 200.317 238.744C200.317 239.224 200.184 239.656 199.917 240.04C199.651 240.424 199.272 240.728 198.781 240.952C198.301 241.166 197.747 241.272 197.117 241.272ZM204.149 233.56V238.728C204.149 239.155 204.239 239.459 204.421 239.64C204.602 239.811 204.917 239.896 205.365 239.896H206.437V241.128H205.125C204.314 241.128 203.706 240.942 203.301 240.568C202.895 240.195 202.693 239.582 202.693 238.728V233.56H201.557V232.36H202.693V230.152H204.149V232.36H206.437V233.56H204.149ZM209.657 233.784C209.913 233.283 210.275 232.894 210.745 232.616C211.225 232.339 211.806 232.2 212.489 232.2V233.704H212.105C210.473 233.704 209.657 234.59 209.657 236.36V241.128H208.201V232.36H209.657V233.784ZM217.994 241.272C217.172 241.272 216.426 241.086 215.754 240.712C215.092 240.339 214.57 239.811 214.186 239.128C213.812 238.435 213.626 237.635 213.626 236.728C213.626 235.832 213.818 235.043 214.202 234.36C214.596 233.667 215.13 233.139 215.802 232.776C216.474 232.403 217.226 232.216 218.058 232.216C218.89 232.216 219.642 232.403 220.314 232.776C220.986 233.139 221.514 233.662 221.898 234.344C222.292 235.027 222.49 235.822 222.49 236.728C222.49 237.635 222.287 238.435 221.882 239.128C221.487 239.811 220.948 240.339 220.266 240.712C219.583 241.086 218.826 241.272 217.994 241.272ZM217.994 239.992C218.516 239.992 219.007 239.87 219.466 239.624C219.924 239.379 220.292 239.011 220.57 238.52C220.858 238.03 221.002 237.432 221.002 236.728C221.002 236.024 220.863 235.427 220.586 234.936C220.308 234.446 219.946 234.083 219.498 233.848C219.05 233.603 218.564 233.48 218.042 233.48C217.508 233.48 217.018 233.603 216.57 233.848C216.132 234.083 215.78 234.446 215.514 234.936C215.247 235.427 215.114 236.024 215.114 236.728C215.114 237.443 215.242 238.046 215.498 238.536C215.764 239.027 216.116 239.395 216.554 239.64C216.991 239.875 217.471 239.992 217.994 239.992ZM225.908 239.112L224.116 243.416H223.14L224.308 239.112H225.908ZM240.289 233.208C239.98 232.558 239.532 232.056 238.945 231.704C238.359 231.342 237.676 231.16 236.897 231.16C236.119 231.16 235.415 231.342 234.785 231.704C234.167 232.056 233.676 232.568 233.313 233.24C232.961 233.902 232.785 234.67 232.785 235.544C232.785 236.419 232.961 237.187 233.313 237.848C233.676 238.51 234.167 239.022 234.785 239.384C235.415 239.736 236.119 239.912 236.897 239.912C237.985 239.912 238.881 239.587 239.585 238.936C240.289 238.286 240.7 237.406 240.817 236.296H236.369V235.112H242.369V236.232C242.284 237.15 241.996 237.992 241.505 238.76C241.015 239.518 240.369 240.12 239.569 240.568C238.769 241.006 237.879 241.224 236.897 241.224C235.863 241.224 234.919 240.984 234.065 240.504C233.212 240.014 232.535 239.336 232.033 238.472C231.543 237.608 231.297 236.632 231.297 235.544C231.297 234.456 231.543 233.48 232.033 232.616C232.535 231.742 233.212 231.064 234.065 230.584C234.919 230.094 235.863 229.848 236.897 229.848C238.081 229.848 239.127 230.142 240.033 230.728C240.951 231.315 241.617 232.142 242.033 233.208H240.289ZM245.047 230.936C244.769 230.936 244.535 230.84 244.343 230.648C244.151 230.456 244.055 230.222 244.055 229.944C244.055 229.667 244.151 229.432 244.343 229.24C244.535 229.048 244.769 228.952 245.047 228.952C245.313 228.952 245.537 229.048 245.719 229.24C245.911 229.432 246.007 229.667 246.007 229.944C246.007 230.222 245.911 230.456 245.719 230.648C245.537 230.84 245.313 230.936 245.047 230.936ZM245.751 232.36V241.128H244.295V232.36H245.751ZM250.008 233.56V238.728C250.008 239.155 250.099 239.459 250.28 239.64C250.461 239.811 250.776 239.896 251.224 239.896H252.296V241.128H250.984C250.173 241.128 249.565 240.942 249.16 240.568C248.755 240.195 248.552 239.582 248.552 238.728V233.56H247.416V232.36H248.552V230.152H250.008V232.36H252.296V233.56H250.008ZM255.564 239.112L253.772 243.416H252.796L253.964 239.112H255.564ZM268.362 229.976V231.16H265.322V241.128H263.866V231.16H260.81V229.976H268.362ZM269.61 236.712C269.61 235.816 269.791 235.032 270.154 234.36C270.517 233.678 271.013 233.15 271.642 232.776C272.282 232.403 272.991 232.216 273.77 232.216C274.538 232.216 275.205 232.382 275.77 232.712C276.335 233.043 276.757 233.459 277.034 233.96V232.36H278.506V241.128H277.034V239.496C276.746 240.008 276.314 240.435 275.738 240.776C275.173 241.107 274.511 241.272 273.754 241.272C272.975 241.272 272.271 241.08 271.642 240.696C271.013 240.312 270.517 239.774 270.154 239.08C269.791 238.387 269.61 237.598 269.61 236.712ZM277.034 236.728C277.034 236.067 276.901 235.491 276.634 235C276.367 234.51 276.005 234.136 275.546 233.88C275.098 233.614 274.602 233.48 274.058 233.48C273.514 233.48 273.018 233.608 272.57 233.864C272.122 234.12 271.765 234.494 271.498 234.984C271.231 235.475 271.098 236.051 271.098 236.712C271.098 237.384 271.231 237.971 271.498 238.472C271.765 238.963 272.122 239.342 272.57 239.608C273.018 239.864 273.514 239.992 274.058 239.992C274.602 239.992 275.098 239.864 275.546 239.608C276.005 239.342 276.367 238.963 276.634 238.472C276.901 237.971 277.034 237.39 277.034 236.728ZM281.718 230.936C281.441 230.936 281.206 230.84 281.014 230.648C280.822 230.456 280.726 230.222 280.726 229.944C280.726 229.667 280.822 229.432 281.014 229.24C281.206 229.048 281.441 228.952 281.718 228.952C281.985 228.952 282.209 229.048 282.39 229.24C282.582 229.432 282.678 229.667 282.678 229.944C282.678 230.222 282.582 230.456 282.39 230.648C282.209 230.84 281.985 230.936 281.718 230.936ZM282.422 232.36V241.128H280.966V232.36H282.422ZM286.36 229.288V241.128H284.904V229.288H286.36ZM300.521 232.36L297.785 241.128H296.281L294.169 234.168L292.057 241.128H290.553L287.801 232.36H289.289L291.305 239.72L293.481 232.36H294.969L297.097 239.736L299.081 232.36H300.521ZM302.718 230.936C302.441 230.936 302.206 230.84 302.014 230.648C301.822 230.456 301.726 230.222 301.726 229.944C301.726 229.667 301.822 229.432 302.014 229.24C302.206 229.048 302.441 228.952 302.718 228.952C302.985 228.952 303.209 229.048 303.39 229.24C303.582 229.432 303.678 229.667 303.678 229.944C303.678 230.222 303.582 230.456 303.39 230.648C303.209 230.84 302.985 230.936 302.718 230.936ZM303.422 232.36V241.128H301.966V232.36H303.422ZM310.176 232.2C311.243 232.2 312.107 232.526 312.768 233.176C313.429 233.816 313.76 234.744 313.76 235.96V241.128H312.32V236.168C312.32 235.294 312.101 234.627 311.664 234.168C311.227 233.699 310.629 233.464 309.872 233.464C309.104 233.464 308.491 233.704 308.032 234.184C307.584 234.664 307.36 235.363 307.36 236.28V241.128H305.904V232.36H307.36V233.608C307.648 233.16 308.037 232.814 308.528 232.568C309.029 232.323 309.579 232.2 310.176 232.2ZM315.594 236.712C315.594 235.816 315.776 235.032 316.138 234.36C316.501 233.678 316.997 233.15 317.626 232.776C318.266 232.403 318.981 232.216 319.77 232.216C320.453 232.216 321.088 232.376 321.674 232.696C322.261 233.006 322.709 233.416 323.018 233.928V229.288H324.49V241.128H323.018V239.48C322.73 240.003 322.304 240.435 321.738 240.776C321.173 241.107 320.512 241.272 319.754 241.272C318.976 241.272 318.266 241.08 317.626 240.696C316.997 240.312 316.501 239.774 316.138 239.08C315.776 238.387 315.594 237.598 315.594 236.712ZM323.018 236.728C323.018 236.067 322.885 235.491 322.618 235C322.352 234.51 321.989 234.136 321.53 233.88C321.082 233.614 320.586 233.48 320.042 233.48C319.498 233.48 319.002 233.608 318.554 233.864C318.106 234.12 317.749 234.494 317.482 234.984C317.216 235.475 317.082 236.051 317.082 236.712C317.082 237.384 317.216 237.971 317.482 238.472C317.749 238.963 318.106 239.342 318.554 239.608C319.002 239.864 319.498 239.992 320.042 239.992C320.586 239.992 321.082 239.864 321.53 239.608C321.989 239.342 322.352 238.963 322.618 238.472C322.885 237.971 323.018 237.39 323.018 236.728Z" fill="#1E1E1E"/>
<defs>
<clipPath id="clip0_9_682">
<rect x="38" y="38.6284" width="134" height="27" fill="white"/>
</clipPath>
<clipPath id="clip1_9_682">
<rect x="38" y="75.6284" width="134" height="27" fill="white"/>
</clipPath>
<clipPath id="clip2_9_682">
<rect x="38" y="112.628" width="134" height="27" fill="white"/>
</clipPath>
<clipPath id="clip3_9_682">
<rect x="38" y="149.628" width="133" height="27" fill="white"/>
</clipPath>
<clipPath id="clip4_9_682">
<rect x="38" y="186.628" width="134" height="27" fill="white"/>
</clipPath>
<clipPath id="clip5_9_682">
<rect x="38" y="223.628" width="134" height="27" fill="white"/>
</clipPath>
</defs>
</svg>
