<svg width="486" height="255" viewBox="0 0 486 255" fill="none" xmlns="http://www.w3.org/2000/svg">
<path d="M1.56 24C1.56 21.312 1.56 18.592 1.56 15.84C1.56 13.088 1.56 10.368 1.56 7.68C2.264 7.68 2.968 7.68 3.672 7.68C4.376 7.68 5.072 7.68 5.76 7.68C5.76 8.72 5.76 9.776 5.76 10.848C5.76 11.904 5.76 12.952 5.76 13.992C6.576 12.952 7.392 11.904 8.208 10.848C9.04 9.776 9.864 8.72 10.68 7.68C11.464 7.68 12.256 7.68 13.056 7.68C13.856 7.68 14.648 7.68 15.432 7.68C14.424 8.96 13.4 10.256 12.36 11.568C11.336 12.864 10.32 14.152 9.312 15.432C10.368 16.84 11.432 18.264 12.504 19.704C13.592 21.144 14.664 22.576 15.72 24C14.888 24 14.048 24 13.2 24C12.368 24 11.536 24 10.704 24C9.888 22.864 9.064 21.728 8.232 20.592C7.4 19.44 6.576 18.304 5.76 17.184C5.76 18.304 5.76 19.44 5.76 20.592C5.76 21.728 5.76 22.864 5.76 24C5.072 24 4.376 24 3.672 24C2.968 24 2.264 24 1.56 24ZM23.5742 24.384C22.4062 24.384 21.3262 24.176 20.3342 23.76C19.3422 23.328 18.4862 22.728 17.7662 21.96C17.0462 21.192 16.4862 20.288 16.0862 19.248C15.6862 18.192 15.4862 17.048 15.4862 15.816C15.4862 14.584 15.6862 13.448 16.0862 12.408C16.4862 11.368 17.0462 10.472 17.7662 9.72C18.4862 8.952 19.3422 8.36 20.3342 7.944C21.3262 7.512 22.4062 7.296 23.5742 7.296C24.7422 7.296 25.8142 7.512 26.7902 7.944C27.7822 8.36 28.6382 8.952 29.3582 9.72C30.0942 10.472 30.6622 11.368 31.0622 12.408C31.4622 13.448 31.6622 14.584 31.6622 15.816C31.6622 17.048 31.4622 18.192 31.0622 19.248C30.6622 20.288 30.0942 21.192 29.3582 21.96C28.6382 22.728 27.7822 23.328 26.7902 23.76C25.8142 24.176 24.7422 24.384 23.5742 24.384ZM23.5742 20.496C24.3582 20.496 25.0302 20.304 25.5902 19.92C26.1502 19.52 26.5822 18.968 26.8862 18.264C27.2062 17.56 27.3662 16.744 27.3662 15.816C27.3662 14.888 27.2062 14.08 26.8862 13.392C26.5822 12.704 26.1502 12.168 25.5902 11.784C25.0302 11.384 24.3582 11.184 23.5742 11.184C22.8062 11.184 22.1342 11.376 21.5582 11.76C20.9982 12.144 20.5582 12.688 20.2382 13.392C19.9342 14.08 19.7822 14.888 19.7822 15.816C19.7822 16.744 19.9342 17.56 20.2382 18.264C20.5582 18.968 20.9982 19.52 21.5582 19.92C22.1342 20.304 22.8062 20.496 23.5742 20.496ZM33.9741 24C33.9741 21.312 33.9741 18.592 33.9741 15.84C33.9741 13.088 33.9741 10.368 33.9741 7.68C34.9661 7.68 35.9661 7.68 36.9741 7.68C37.9821 7.68 38.9821 7.68 39.9741 7.68C40.4381 9.312 40.8941 10.968 41.3421 12.648C41.8061 14.312 42.2621 15.96 42.7101 17.592C43.1581 15.96 43.6061 14.312 44.0541 12.648C44.5181 10.968 44.9741 9.312 45.4221 7.68C46.4141 7.68 47.4061 7.68 48.3981 7.68C49.3901 7.68 50.3741 7.68 51.3501 7.68C51.3661 10.368 51.3821 13.088 51.3981 15.84C51.4141 18.592 51.4301 21.312 51.4461 24C50.7741 24 50.0941 24 49.4061 24C48.7341 24 48.0621 24 47.3901 24C47.3901 22.176 47.3901 20.336 47.3901 18.48C47.3901 16.608 47.3901 14.76 47.3901 12.936C46.9101 14.76 46.4221 16.608 45.9261 18.48C45.4301 20.336 44.9421 22.176 44.4621 24C43.8701 24 43.2621 24 42.6381 24C42.0301 24 41.4221 24 40.8141 24C40.3341 22.208 39.8541 20.4 39.3741 18.576C38.8941 16.736 38.4141 14.92 37.9341 13.128C37.9341 14.92 37.9341 16.736 37.9341 18.576C37.9341 20.4 37.9341 22.208 37.9341 24C37.2941 24 36.6381 24 35.9661 24C35.2941 24 34.6301 24 33.9741 24ZM54.5756 24C54.5756 21.312 54.5756 18.592 54.5756 15.84C54.5756 13.088 54.5756 10.368 54.5756 7.68C55.5676 7.68 56.5596 7.68 57.5516 7.68C58.5596 7.68 59.5516 7.68 60.5276 7.68C61.7596 7.68 62.8316 7.92 63.7436 8.4C64.6556 8.864 65.3676 9.52 65.8796 10.368C66.3916 11.216 66.6476 12.208 66.6476 13.344C66.6476 14.464 66.3916 15.448 65.8796 16.296C65.3836 17.144 64.6956 17.8 63.8156 18.264C62.9516 18.728 61.9676 18.96 60.8636 18.96C60.5116 18.96 60.1596 18.96 59.8076 18.96C59.4716 18.96 59.1276 18.96 58.7756 18.96C58.7756 19.792 58.7756 20.632 58.7756 21.48C58.7756 22.328 58.7756 23.168 58.7756 24C58.0876 24 57.3916 24 56.6876 24C55.9836 24 55.2796 24 54.5756 24ZM60.5276 11.448C60.2396 11.448 59.9436 11.448 59.6396 11.448C59.3516 11.448 59.0636 11.448 58.7756 11.448C58.7756 12.088 58.7756 12.736 58.7756 13.392C58.7756 14.032 58.7756 14.672 58.7756 15.312C59.0956 15.312 59.4236 15.312 59.7596 15.312C60.1116 15.312 60.4476 15.312 60.7676 15.312C61.2636 15.312 61.6636 15.128 61.9676 14.76C62.2876 14.392 62.4476 13.936 62.4476 13.392C62.4476 12.832 62.2796 12.368 61.9436 12C61.6076 11.632 61.1356 11.448 60.5276 11.448ZM68.8022 24C68.8022 21.312 68.8022 18.592 68.8022 15.84C68.8022 13.088 68.8022 10.368 68.8022 7.68C70.4182 7.68 72.0502 7.68 73.6982 7.68C75.3462 7.68 76.9782 7.68 78.5942 7.68C78.5942 8.288 78.5942 8.912 78.5942 9.552C78.5942 10.192 78.5942 10.816 78.5942 11.424C77.6662 11.424 76.7302 11.424 75.7862 11.424C74.8582 11.424 73.9302 11.424 73.0022 11.424C73.0022 11.824 73.0022 12.224 73.0022 12.624C73.0022 13.008 73.0022 13.4 73.0022 13.8C73.8502 13.8 74.7062 13.8 75.5702 13.8C76.4342 13.8 77.2822 13.8 78.1142 13.8C78.1142 14.392 78.1142 14.992 78.1142 15.6C78.1142 16.208 78.1142 16.816 78.1142 17.424C77.2822 17.424 76.4342 17.424 75.5702 17.424C74.7062 17.424 73.8502 17.424 73.0022 17.424C73.0022 17.888 73.0022 18.36 73.0022 18.84C73.0022 19.32 73.0022 19.792 73.0022 20.256C73.9302 20.256 74.8582 20.256 75.7862 20.256C76.7302 20.256 77.6662 20.256 78.5942 20.256C78.5942 20.864 78.5942 21.488 78.5942 22.128C78.5942 22.768 78.5942 23.392 78.5942 24C76.9782 24 75.3462 24 73.6982 24C72.0502 24 70.4182 24 68.8022 24ZM84.3379 24C84.3379 21.936 84.3379 19.856 84.3379 17.76C84.3379 15.648 84.3379 13.56 84.3379 11.496C83.7299 11.496 83.1139 11.496 82.4899 11.496C81.8659 11.496 81.2499 11.496 80.6419 11.496C80.6419 10.872 80.6419 10.24 80.6419 9.6C80.6419 8.944 80.6419 8.304 80.6419 7.68C82.5459 7.68 84.4739 7.68 86.4259 7.68C88.3779 7.68 90.3059 7.68 92.2099 7.68C92.2099 8.304 92.2099 8.944 92.2099 9.6C92.2099 10.24 92.2099 10.872 92.2099 11.496C91.6179 11.496 91.0099 11.496 90.3859 11.496C89.7619 11.496 89.1459 11.496 88.5379 11.496C88.5379 13.56 88.5379 15.648 88.5379 17.76C88.5379 19.856 88.5379 21.936 88.5379 24C87.8499 24 87.1539 24 86.4499 24C85.7459 24 85.0419 24 84.3379 24ZM94.4897 24C94.4897 21.312 94.4897 18.592 94.4897 15.84C94.4897 13.088 94.4897 10.368 94.4897 7.68C96.1057 7.68 97.7377 7.68 99.3857 7.68C101.034 7.68 102.666 7.68 104.282 7.68C104.282 8.288 104.282 8.912 104.282 9.552C104.282 10.192 104.282 10.816 104.282 11.424C103.354 11.424 102.418 11.424 101.474 11.424C100.546 11.424 99.6177 11.424 98.6897 11.424C98.6897 11.824 98.6897 12.224 98.6897 12.624C98.6897 13.008 98.6897 13.4 98.6897 13.8C99.5377 13.8 100.394 13.8 101.258 13.8C102.122 13.8 102.97 13.8 103.802 13.8C103.802 14.392 103.802 14.992 103.802 15.6C103.802 16.208 103.802 16.816 103.802 17.424C102.97 17.424 102.122 17.424 101.258 17.424C100.394 17.424 99.5377 17.424 98.6897 17.424C98.6897 17.888 98.6897 18.36 98.6897 18.84C98.6897 19.32 98.6897 19.792 98.6897 20.256C99.6177 20.256 100.546 20.256 101.474 20.256C102.418 20.256 103.354 20.256 104.282 20.256C104.282 20.864 104.282 21.488 104.282 22.128C104.282 22.768 104.282 23.392 104.282 24C102.666 24 101.034 24 99.3857 24C97.7377 24 96.1057 24 94.4897 24ZM107.169 24C107.169 21.312 107.169 18.592 107.169 15.84C107.169 13.088 107.169 10.368 107.169 7.68C107.873 7.68 108.577 7.68 109.281 7.68C110.001 7.68 110.705 7.68 111.393 7.68C112.241 9.2 113.097 10.736 113.961 12.288C114.841 13.84 115.705 15.376 116.553 16.896C116.553 15.376 116.553 13.84 116.553 12.288C116.553 10.736 116.553 9.2 116.553 7.68C117.241 7.68 117.929 7.68 118.617 7.68C119.305 7.68 119.993 7.68 120.681 7.68C120.681 10.368 120.681 13.088 120.681 15.84C120.681 18.592 120.681 21.312 120.681 24C119.993 24 119.289 24 118.569 24C117.865 24 117.161 24 116.457 24C115.609 22.48 114.745 20.944 113.865 19.392C113.001 17.84 112.145 16.304 111.297 14.784C111.297 16.304 111.297 17.84 111.297 19.392C111.297 20.944 111.297 22.48 111.297 24C110.609 24 109.921 24 109.233 24C108.545 24 107.857 24 107.169 24ZM122.994 15.84C122.994 14.608 123.186 13.488 123.57 12.48C123.97 11.456 124.53 10.568 125.25 9.816C125.97 9.064 126.834 8.48 127.842 8.064C128.85 7.648 129.962 7.424 131.178 7.392C132.41 7.36 133.722 7.552 135.114 7.968C135.114 8.64 135.114 9.32 135.114 10.008C135.114 10.68 135.114 11.352 135.114 12.024C134.17 11.576 133.234 11.32 132.306 11.256C131.378 11.192 130.538 11.32 129.786 11.64C129.034 11.96 128.434 12.472 127.986 13.176C127.538 13.864 127.314 14.752 127.314 15.84C127.314 16.928 127.538 17.824 127.986 18.528C128.434 19.216 129.034 19.72 129.786 20.04C130.538 20.36 131.378 20.488 132.306 20.424C133.234 20.36 134.17 20.104 135.114 19.656C135.114 20.328 135.114 21.008 135.114 21.696C135.114 22.368 135.114 23.04 135.114 23.712C133.722 24.128 132.41 24.32 131.178 24.288C129.962 24.256 128.85 24.032 127.842 23.616C126.834 23.2 125.97 22.616 125.25 21.864C124.53 21.112 123.97 20.232 123.57 19.224C123.186 18.2 122.994 17.072 122.994 15.84ZM137.873 24C137.873 21.312 137.873 18.592 137.873 15.84C137.873 13.088 137.873 10.368 137.873 7.68C139.489 7.68 141.121 7.68 142.769 7.68C144.417 7.68 146.049 7.68 147.665 7.68C147.665 8.288 147.665 8.912 147.665 9.552C147.665 10.192 147.665 10.816 147.665 11.424C146.737 11.424 145.801 11.424 144.857 11.424C143.929 11.424 143.001 11.424 142.073 11.424C142.073 11.824 142.073 12.224 142.073 12.624C142.073 13.008 142.073 13.4 142.073 13.8C142.921 13.8 143.777 13.8 144.641 13.8C145.505 13.8 146.353 13.8 147.185 13.8C147.185 14.392 147.185 14.992 147.185 15.6C147.185 16.208 147.185 16.816 147.185 17.424C146.353 17.424 145.505 17.424 144.641 17.424C143.777 17.424 142.921 17.424 142.073 17.424C142.073 17.888 142.073 18.36 142.073 18.84C142.073 19.32 142.073 19.792 142.073 20.256C143.001 20.256 143.929 20.256 144.857 20.256C145.801 20.256 146.737 20.256 147.665 20.256C147.665 20.864 147.665 21.488 147.665 22.128C147.665 22.768 147.665 23.392 147.665 24C146.049 24 144.417 24 142.769 24C141.121 24 139.489 24 137.873 24ZM150.552 24C150.552 21.312 150.552 18.592 150.552 15.84C150.552 13.088 150.552 10.368 150.552 7.68C151.512 7.68 152.472 7.68 153.432 7.68C154.408 7.68 155.376 7.68 156.336 7.68C157.552 7.68 158.616 7.912 159.528 8.376C160.44 8.824 161.144 9.464 161.64 10.296C162.152 11.112 162.408 12.072 162.408 13.176C162.408 14.12 162.216 14.96 161.832 15.696C161.448 16.432 160.928 17.032 160.272 17.496C160.912 18.568 161.552 19.656 162.192 20.76C162.848 21.848 163.496 22.928 164.136 24C163.352 24 162.568 24 161.784 24C161 24 160.216 24 159.432 24C158.936 23.104 158.432 22.192 157.92 21.264C157.424 20.336 156.92 19.424 156.408 18.528C156.136 18.528 155.856 18.528 155.568 18.528C155.296 18.528 155.024 18.528 154.752 18.528C154.752 19.424 154.752 20.336 154.752 21.264C154.752 22.192 154.752 23.104 154.752 24C154.064 24 153.368 24 152.664 24C151.96 24 151.256 24 150.552 24ZM156.336 11.472C156.08 11.472 155.816 11.472 155.544 11.472C155.288 11.472 155.024 11.472 154.752 11.472C154.752 12.064 154.752 12.656 154.752 13.248C154.752 13.84 154.752 14.432 154.752 15.024C155.056 15.024 155.36 15.024 155.664 15.024C155.968 15.024 156.272 15.024 156.576 15.024C157.056 15.024 157.448 14.856 157.752 14.52C158.056 14.168 158.208 13.744 158.208 13.248C158.208 12.736 158.04 12.312 157.704 11.976C157.384 11.64 156.928 11.472 156.336 11.472Z" fill="#161719"/>
<path d="M14 42C21.732 42 28 48.268 28 56C28 63.732 21.732 70 14 70C6.26801 70 0 63.732 0 56C0 48.268 6.26801 42 14 42ZM10.9619 47C10.1787 47.0221 9.43537 47.3306 8.88965 47.8594C8.34391 48.3882 8.03809 49.0961 8.03809 49.833C8.03811 50.5699 8.34394 51.2778 8.88965 51.8066C9.43536 52.3354 10.1787 52.6439 10.9619 52.666C10.1718 52.6789 9.41817 52.9827 8.86426 53.5127C8.31033 54.0427 8 54.7568 8 55.5C8.00012 56.243 8.31044 56.9564 8.86426 57.4863C9.41818 58.0163 10.1718 58.3201 10.9619 58.333C10.1757 58.3511 9.42721 58.6581 8.87793 59.1875C8.32885 59.7168 8.02148 60.4275 8.02148 61.167C8.02157 61.9065 8.32873 62.6172 8.87793 63.1465C9.42721 63.6759 10.1757 63.9819 10.9619 64C11.7608 63.9994 12.527 63.7003 13.0918 63.1689C13.6565 62.6376 13.9743 61.9173 13.9746 61.166V52.666H16.9873C17.7705 52.6439 18.5139 52.3355 19.0596 51.8066C19.6052 51.2778 19.9101 50.5699 19.9102 49.833C19.9102 49.0962 19.6052 48.3882 19.0596 47.8594C18.5139 47.3306 17.7705 47.0222 16.9873 47H10.9619ZM16.9873 52.666C15.3235 52.666 13.9748 53.9344 13.9746 55.499C13.9746 57.0638 15.3234 58.333 16.9873 58.333C18.6512 58.3329 20 57.0638 20 55.499C19.9998 53.9344 18.651 52.6661 16.9873 52.666Z" fill="#B44E9E"/>
<g clip-path="url(#clip0_6_611)">
<rect x="38" y="43" width="242" height="27" fill="#B44E9E"/>
</g>
<rect x="38.5" y="43" width="241" height="26" stroke="#B44E9E"/>
<path d="M297.536 50.848V52.032H292.688V55.792H296.624V56.976H292.688V62H291.232V50.848H297.536ZM300.047 51.808C299.769 51.808 299.535 51.712 299.343 51.52C299.151 51.328 299.055 51.0933 299.055 50.816C299.055 50.5387 299.151 50.304 299.343 50.112C299.535 49.92 299.769 49.824 300.047 49.824C300.313 49.824 300.537 49.92 300.719 50.112C300.911 50.304 301.007 50.5387 301.007 50.816C301.007 51.0933 300.911 51.328 300.719 51.52C300.537 51.712 300.313 51.808 300.047 51.808ZM300.751 53.232V62H299.295V53.232H300.751ZM306.848 53.088C307.605 53.088 308.267 53.2533 308.832 53.584C309.408 53.9147 309.835 54.3307 310.112 54.832V53.232H311.584V62.192C311.584 62.992 311.413 63.7013 311.072 64.32C310.731 64.9493 310.24 65.44 309.6 65.792C308.971 66.144 308.235 66.32 307.392 66.32C306.24 66.32 305.28 66.048 304.512 65.504C303.744 64.96 303.291 64.2187 303.152 63.28H304.592C304.752 63.8133 305.083 64.24 305.584 64.56C306.085 64.8907 306.688 65.056 307.392 65.056C308.192 65.056 308.843 64.8053 309.344 64.304C309.856 63.8027 310.112 63.0987 310.112 62.192V60.352C309.824 60.864 309.397 61.2907 308.832 61.632C308.267 61.9733 307.605 62.144 306.848 62.144C306.069 62.144 305.36 61.952 304.72 61.568C304.091 61.184 303.595 60.6453 303.232 59.952C302.869 59.2587 302.688 58.4693 302.688 57.584C302.688 56.688 302.869 55.904 303.232 55.232C303.595 54.5493 304.091 54.0213 304.72 53.648C305.36 53.2747 306.069 53.088 306.848 53.088ZM310.112 57.6C310.112 56.9387 309.979 56.3627 309.712 55.872C309.445 55.3813 309.083 55.008 308.624 54.752C308.176 54.4853 307.68 54.352 307.136 54.352C306.592 54.352 306.096 54.48 305.648 54.736C305.2 54.992 304.843 55.3653 304.576 55.856C304.309 56.3467 304.176 56.9227 304.176 57.584C304.176 58.256 304.309 58.8427 304.576 59.344C304.843 59.8347 305.2 60.2133 305.648 60.48C306.096 60.736 306.592 60.864 307.136 60.864C307.68 60.864 308.176 60.736 308.624 60.48C309.083 60.2133 309.445 59.8347 309.712 59.344C309.979 58.8427 310.112 58.2613 310.112 57.6ZM324.589 53.072C325.271 53.072 325.879 53.216 326.413 53.504C326.946 53.7813 327.367 54.2027 327.677 54.768C327.986 55.3333 328.141 56.0213 328.141 56.832V62H326.701V57.04C326.701 56.1653 326.482 55.4987 326.045 55.04C325.618 54.5707 325.037 54.336 324.301 54.336C323.543 54.336 322.941 54.5813 322.493 55.072C322.045 55.552 321.821 56.2507 321.821 57.168V62H320.381V57.04C320.381 56.1653 320.162 55.4987 319.725 55.04C319.298 54.5707 318.717 54.336 317.981 54.336C317.223 54.336 316.621 54.5813 316.173 55.072C315.725 55.552 315.501 56.2507 315.501 57.168V62H314.045V53.232H315.501V54.496C315.789 54.0373 316.173 53.6853 316.653 53.44C317.143 53.1947 317.682 53.072 318.269 53.072C319.005 53.072 319.655 53.2373 320.221 53.568C320.786 53.8987 321.207 54.384 321.485 55.024C321.73 54.4053 322.135 53.9253 322.701 53.584C323.266 53.2427 323.895 53.072 324.589 53.072ZM329.985 57.584C329.985 56.688 330.166 55.904 330.529 55.232C330.892 54.5493 331.388 54.0213 332.017 53.648C332.657 53.2747 333.366 53.088 334.145 53.088C334.913 53.088 335.58 53.2533 336.145 53.584C336.71 53.9147 337.132 54.3307 337.409 54.832V53.232H338.881V62H337.409V60.368C337.121 60.88 336.689 61.3067 336.113 61.648C335.548 61.9787 334.886 62.144 334.129 62.144C333.35 62.144 332.646 61.952 332.017 61.568C331.388 61.184 330.892 60.6453 330.529 59.952C330.166 59.2587 329.985 58.4693 329.985 57.584ZM337.409 57.6C337.409 56.9387 337.276 56.3627 337.009 55.872C336.742 55.3813 336.38 55.008 335.921 54.752C335.473 54.4853 334.977 54.352 334.433 54.352C333.889 54.352 333.393 54.48 332.945 54.736C332.497 54.992 332.14 55.3653 331.873 55.856C331.606 56.3467 331.473 56.9227 331.473 57.584C331.473 58.256 331.606 58.8427 331.873 59.344C332.14 59.8347 332.497 60.2133 332.945 60.48C333.393 60.736 333.889 60.864 334.433 60.864C334.977 60.864 335.473 60.736 335.921 60.48C336.38 60.2133 336.742 59.8347 337.009 59.344C337.276 58.8427 337.409 58.2613 337.409 57.6Z" fill="#1E1E1E"/>
<path d="M14 79C21.732 79 28 85.268 28 93C28 100.732 21.732 107 14 107C6.26801 107 0 100.732 0 93C0 85.268 6.26801 79 14 79ZM10.7002 86.9121L6.66895 98H8.20508L9.10059 95.5195H13.9648L14.8604 98H16.3965L12.3809 86.9121H10.7002ZM18.1543 89.2324V98H19.6104V89.2324H18.1543ZM13.5488 94.3359H9.5166L11.5322 88.7041L13.5488 94.3359ZM18.9062 85.8242C18.6289 85.8242 18.3941 85.9203 18.2021 86.1123C18.0102 86.3043 17.9141 86.5391 17.9141 86.8164C17.9142 87.0935 18.0103 87.3276 18.2021 87.5195C18.3941 87.7115 18.6289 87.8076 18.9062 87.8076C19.1728 87.8075 19.3969 87.7114 19.5781 87.5195C19.7698 87.3277 19.8661 87.0934 19.8662 86.8164C19.8662 86.5392 19.7699 86.3043 19.5781 86.1123C19.3969 85.9204 19.1728 85.8243 18.9062 85.8242Z" fill="#B44E9E"/>
<g clip-path="url(#clip1_6_611)">
<rect x="38" y="80" width="192" height="27" fill="#B44E9E"/>
</g>
<rect x="38.5" y="80" width="239" height="26" stroke="#B44E9E"/>
<path d="M290.688 87.848V99H289.232V87.848H290.688ZM294.626 87.16V99H293.17V87.16H294.626ZM298.563 87.16V99H297.107V87.16H298.563ZM308.821 90.232V99H307.365V97.704C307.087 98.152 306.698 98.504 306.197 98.76C305.706 99.0053 305.162 99.128 304.565 99.128C303.882 99.128 303.269 98.9893 302.725 98.712C302.181 98.424 301.749 97.9973 301.429 97.432C301.119 96.8667 300.965 96.1787 300.965 95.368V90.232H302.405V95.176C302.405 96.04 302.623 96.7067 303.061 97.176C303.498 97.6347 304.095 97.864 304.853 97.864C305.631 97.864 306.245 97.624 306.693 97.144C307.141 96.664 307.365 95.9653 307.365 95.048V90.232H308.821ZM314.383 99.144C313.711 99.144 313.108 99.032 312.575 98.808C312.042 98.5733 311.62 98.2533 311.311 97.848C311.002 97.432 310.831 96.9573 310.799 96.424H312.303C312.346 96.8613 312.548 97.2187 312.911 97.496C313.284 97.7733 313.77 97.912 314.367 97.912C314.922 97.912 315.359 97.7893 315.679 97.544C315.999 97.2987 316.159 96.9893 316.159 96.616C316.159 96.232 315.988 95.9493 315.647 95.768C315.306 95.576 314.778 95.3893 314.063 95.208C313.412 95.0373 312.879 94.8667 312.463 94.696C312.058 94.5147 311.706 94.2533 311.407 93.912C311.119 93.56 310.975 93.1013 310.975 92.536C310.975 92.088 311.108 91.6773 311.375 91.304C311.642 90.9307 312.02 90.6373 312.511 90.424C313.002 90.2 313.562 90.088 314.191 90.088C315.162 90.088 315.946 90.3333 316.543 90.824C317.14 91.3147 317.46 91.9867 317.503 92.84H316.047C316.015 92.3813 315.828 92.0133 315.487 91.736C315.156 91.4587 314.708 91.32 314.143 91.32C313.62 91.32 313.204 91.432 312.895 91.656C312.586 91.88 312.431 92.1733 312.431 92.536C312.431 92.824 312.522 93.064 312.703 93.256C312.895 93.4373 313.13 93.5867 313.407 93.704C313.695 93.8107 314.09 93.9333 314.591 94.072C315.22 94.2427 315.732 94.4133 316.127 94.584C316.522 94.744 316.858 94.9893 317.135 95.32C317.423 95.6507 317.572 96.0827 317.583 96.616C317.583 97.096 317.45 97.528 317.183 97.912C316.916 98.296 316.538 98.6 316.047 98.824C315.567 99.0373 315.012 99.144 314.383 99.144ZM321.414 91.432V96.6C321.414 97.0267 321.505 97.3307 321.686 97.512C321.868 97.6827 322.182 97.768 322.63 97.768H323.702V99H322.39C321.58 99 320.972 98.8133 320.566 98.44C320.161 98.0667 319.958 97.4533 319.958 96.6V91.432H318.822V90.232H319.958V88.024H321.414V90.232H323.702V91.432H321.414ZM326.922 91.656C327.178 91.1547 327.541 90.7653 328.01 90.488C328.49 90.2107 329.072 90.072 329.754 90.072V91.576H329.37C327.738 91.576 326.922 92.4613 326.922 94.232V99H325.466V90.232H326.922V91.656ZM330.891 94.584C330.891 93.688 331.072 92.904 331.435 92.232C331.798 91.5493 332.294 91.0213 332.923 90.648C333.563 90.2747 334.272 90.088 335.051 90.088C335.819 90.088 336.486 90.2533 337.051 90.584C337.616 90.9147 338.038 91.3307 338.315 91.832V90.232H339.787V99H338.315V97.368C338.027 97.88 337.595 98.3067 337.019 98.648C336.454 98.9787 335.792 99.144 335.035 99.144C334.256 99.144 333.552 98.952 332.923 98.568C332.294 98.184 331.798 97.6453 331.435 96.952C331.072 96.2587 330.891 95.4693 330.891 94.584ZM338.315 94.6C338.315 93.9387 338.182 93.3627 337.915 92.872C337.648 92.3813 337.286 92.008 336.827 91.752C336.379 91.4853 335.883 91.352 335.339 91.352C334.795 91.352 334.299 91.48 333.851 91.736C333.403 91.992 333.046 92.3653 332.779 92.856C332.512 93.3467 332.379 93.9227 332.379 94.584C332.379 95.256 332.512 95.8427 332.779 96.344C333.046 96.8347 333.403 97.2133 333.851 97.48C334.299 97.736 334.795 97.864 335.339 97.864C335.883 97.864 336.379 97.736 336.827 97.48C337.286 97.2133 337.648 96.8347 337.915 96.344C338.182 95.8427 338.315 95.2613 338.315 94.6ZM344.024 91.432V96.6C344.024 97.0267 344.114 97.3307 344.296 97.512C344.477 97.6827 344.792 97.768 345.24 97.768H346.312V99H345C344.189 99 343.581 98.8133 343.176 98.44C342.77 98.0667 342.568 97.4533 342.568 96.6V91.432H341.432V90.232H342.568V88.024H344.024V90.232H346.312V91.432H344.024ZM351.9 99.144C351.078 99.144 350.332 98.9573 349.66 98.584C348.998 98.2107 348.476 97.6827 348.092 97C347.718 96.3067 347.532 95.5067 347.532 94.6C347.532 93.704 347.724 92.9147 348.108 92.232C348.502 91.5387 349.036 91.0107 349.708 90.648C350.38 90.2747 351.132 90.088 351.964 90.088C352.796 90.088 353.548 90.2747 354.22 90.648C354.892 91.0107 355.42 91.5333 355.804 92.216C356.198 92.8987 356.396 93.6933 356.396 94.6C356.396 95.5067 356.193 96.3067 355.788 97C355.393 97.6827 354.854 98.2107 354.172 98.584C353.489 98.9573 352.732 99.144 351.9 99.144ZM351.9 97.864C352.422 97.864 352.913 97.7413 353.372 97.496C353.83 97.2507 354.198 96.8827 354.476 96.392C354.764 95.9013 354.908 95.304 354.908 94.6C354.908 93.896 354.769 93.2987 354.492 92.808C354.214 92.3173 353.852 91.9547 353.404 91.72C352.956 91.4747 352.47 91.352 351.948 91.352C351.414 91.352 350.924 91.4747 350.476 91.72C350.038 91.9547 349.686 92.3173 349.42 92.808C349.153 93.2987 349.02 93.896 349.02 94.6C349.02 95.3147 349.148 95.9173 349.404 96.408C349.67 96.8987 350.022 97.2667 350.46 97.512C350.897 97.7467 351.377 97.864 351.9 97.864ZM359.766 91.656C360.022 91.1547 360.385 90.7653 360.854 90.488C361.334 90.2107 361.915 90.072 362.598 90.072V91.576H362.214C360.582 91.576 359.766 92.4613 359.766 94.232V99H358.31V90.232H359.766V91.656Z" fill="#1E1E1E"/>
<path d="M14 116C21.732 116 28 122.268 28 130C28 137.732 21.732 144 14 144C6.26801 144 0 137.732 0 130C0 122.268 6.26801 116 14 116ZM18.5967 126.088C17.9675 126.088 17.4075 126.2 16.917 126.424C16.4265 126.637 16.0479 126.931 15.7812 127.304C15.5146 127.677 15.3809 128.088 15.3809 128.536C15.3809 129.101 15.5255 129.56 15.8135 129.912C16.1121 130.253 16.4639 130.515 16.8691 130.696C17.285 130.867 17.8183 131.037 18.4688 131.208C19.1831 131.389 19.7114 131.576 20.0527 131.768C20.3941 131.949 20.5654 132.232 20.5654 132.616C20.5654 132.989 20.4049 133.299 20.085 133.544C19.765 133.789 19.3279 133.912 18.7734 133.912C18.1762 133.912 17.6907 133.773 17.3174 133.496C16.9547 133.219 16.7517 132.861 16.709 132.424H15.2051C15.2371 132.957 15.4076 133.432 15.7168 133.848C16.0261 134.253 16.4481 134.573 16.9814 134.808C17.5147 135.032 18.1171 135.144 18.7891 135.144C19.4184 135.144 19.9731 135.038 20.4531 134.824C20.9437 134.6 21.3222 134.296 21.5889 133.912C21.8555 133.528 21.9892 133.096 21.9893 132.616C21.9786 132.083 21.8289 131.651 21.541 131.32C21.2637 130.99 20.9278 130.744 20.5332 130.584C20.1385 130.413 19.6264 130.243 18.9971 130.072C18.4959 129.934 18.1014 129.811 17.8135 129.704C17.5362 129.587 17.3014 129.437 17.1094 129.256C16.9281 129.064 16.8369 128.824 16.8369 128.536C16.8369 128.174 16.9917 127.88 17.3008 127.656C17.6101 127.432 18.0263 127.32 18.5488 127.32C19.1142 127.32 19.5629 127.459 19.8936 127.736C20.2346 128.014 20.4211 128.381 20.4531 128.84H21.9092C21.8665 127.987 21.5464 127.315 20.9492 126.824C20.3519 126.334 19.5673 126.088 18.5967 126.088ZM6.41992 123.848V135H7.87598V130.344H10.0195C11.3208 130.344 12.2857 130.04 12.915 129.432C13.555 128.813 13.8759 128.04 13.876 127.112C13.876 126.152 13.5451 125.368 12.8838 124.76C12.2331 124.152 11.2782 123.848 10.0195 123.848H6.41992ZM10.0195 125.048C11.5982 125.048 12.3877 125.736 12.3877 127.112C12.3876 127.763 12.1955 128.264 11.8115 128.616C11.4275 128.968 10.8301 129.144 10.0195 129.144H7.87598V125.048H10.0195Z" fill="#B44E9E"/>
<g clip-path="url(#clip2_6_611)">
<rect x="38" y="117" width="201" height="27" fill="#B44E9E"/>
</g>
<rect x="38.5" y="117" width="239" height="26" stroke="#B44E9E"/>
<path d="M296.688 128.112C296.688 129.04 296.368 129.813 295.728 130.432C295.099 131.04 294.133 131.344 292.832 131.344H290.688V136H289.232V124.848H292.832C294.091 124.848 295.045 125.152 295.696 125.76C296.357 126.368 296.688 127.152 296.688 128.112ZM292.832 130.144C293.643 130.144 294.24 129.968 294.624 129.616C295.008 129.264 295.2 128.763 295.2 128.112C295.2 126.736 294.411 126.048 292.832 126.048H290.688V130.144H292.832ZM302.85 127.072C303.511 127.072 304.108 127.216 304.642 127.504C305.175 127.781 305.591 128.203 305.89 128.768C306.199 129.333 306.354 130.021 306.354 130.832V136H304.914V131.04C304.914 130.165 304.695 129.499 304.258 129.04C303.82 128.571 303.223 128.336 302.466 128.336C301.698 128.336 301.084 128.576 300.626 129.056C300.178 129.536 299.954 130.235 299.954 131.152V136H298.498V124.16H299.954V128.48C300.242 128.032 300.636 127.685 301.138 127.44C301.65 127.195 302.22 127.072 302.85 127.072ZM312.556 136.144C311.735 136.144 310.988 135.957 310.316 135.584C309.655 135.211 309.132 134.683 308.748 134C308.375 133.307 308.188 132.507 308.188 131.6C308.188 130.704 308.38 129.915 308.764 129.232C309.159 128.539 309.692 128.011 310.364 127.648C311.036 127.275 311.788 127.088 312.62 127.088C313.452 127.088 314.204 127.275 314.876 127.648C315.548 128.011 316.076 128.533 316.46 129.216C316.855 129.899 317.052 130.693 317.052 131.6C317.052 132.507 316.849 133.307 316.444 134C316.049 134.683 315.511 135.211 314.828 135.584C314.145 135.957 313.388 136.144 312.556 136.144ZM312.556 134.864C313.079 134.864 313.569 134.741 314.028 134.496C314.487 134.251 314.855 133.883 315.132 133.392C315.42 132.901 315.564 132.304 315.564 131.6C315.564 130.896 315.425 130.299 315.148 129.808C314.871 129.317 314.508 128.955 314.06 128.72C313.612 128.475 313.127 128.352 312.604 128.352C312.071 128.352 311.58 128.475 311.132 128.72C310.695 128.955 310.343 129.317 310.076 129.808C309.809 130.299 309.676 130.896 309.676 131.6C309.676 132.315 309.804 132.917 310.06 133.408C310.327 133.899 310.679 134.267 311.116 134.512C311.553 134.747 312.033 134.864 312.556 134.864ZM320.742 128.432V133.6C320.742 134.027 320.833 134.331 321.014 134.512C321.196 134.683 321.51 134.768 321.958 134.768H323.03V136H321.718C320.908 136 320.3 135.813 319.894 135.44C319.489 135.067 319.286 134.453 319.286 133.6V128.432H318.15V127.232H319.286V125.024H320.742V127.232H323.03V128.432H320.742ZM328.619 136.144C327.797 136.144 327.051 135.957 326.379 135.584C325.717 135.211 325.195 134.683 324.811 134C324.437 133.307 324.251 132.507 324.251 131.6C324.251 130.704 324.443 129.915 324.827 129.232C325.221 128.539 325.755 128.011 326.427 127.648C327.099 127.275 327.851 127.088 328.683 127.088C329.515 127.088 330.267 127.275 330.939 127.648C331.611 128.011 332.139 128.533 332.523 129.216C332.917 129.899 333.115 130.693 333.115 131.6C333.115 132.507 332.912 133.307 332.507 134C332.112 134.683 331.573 135.211 330.891 135.584C330.208 135.957 329.451 136.144 328.619 136.144ZM328.619 134.864C329.141 134.864 329.632 134.741 330.091 134.496C330.549 134.251 330.917 133.883 331.195 133.392C331.483 132.901 331.627 132.304 331.627 131.6C331.627 130.896 331.488 130.299 331.211 129.808C330.933 129.317 330.571 128.955 330.123 128.72C329.675 128.475 329.189 128.352 328.667 128.352C328.133 128.352 327.643 128.475 327.195 128.72C326.757 128.955 326.405 129.317 326.139 129.808C325.872 130.299 325.739 130.896 325.739 131.6C325.739 132.315 325.867 132.917 326.123 133.408C326.389 133.899 326.741 134.267 327.179 134.512C327.616 134.747 328.096 134.864 328.619 134.864ZM338.133 136.144C337.461 136.144 336.858 136.032 336.325 135.808C335.792 135.573 335.37 135.253 335.061 134.848C334.752 134.432 334.581 133.957 334.549 133.424H336.053C336.096 133.861 336.298 134.219 336.661 134.496C337.034 134.773 337.52 134.912 338.117 134.912C338.672 134.912 339.109 134.789 339.429 134.544C339.749 134.299 339.909 133.989 339.909 133.616C339.909 133.232 339.738 132.949 339.397 132.768C339.056 132.576 338.528 132.389 337.813 132.208C337.162 132.037 336.629 131.867 336.213 131.696C335.808 131.515 335.456 131.253 335.157 130.912C334.869 130.56 334.725 130.101 334.725 129.536C334.725 129.088 334.858 128.677 335.125 128.304C335.392 127.931 335.77 127.637 336.261 127.424C336.752 127.2 337.312 127.088 337.941 127.088C338.912 127.088 339.696 127.333 340.293 127.824C340.89 128.315 341.21 128.987 341.253 129.84H339.797C339.765 129.381 339.578 129.013 339.237 128.736C338.906 128.459 338.458 128.32 337.893 128.32C337.37 128.32 336.954 128.432 336.645 128.656C336.336 128.88 336.181 129.173 336.181 129.536C336.181 129.824 336.272 130.064 336.453 130.256C336.645 130.437 336.88 130.587 337.157 130.704C337.445 130.811 337.84 130.933 338.341 131.072C338.97 131.243 339.482 131.413 339.877 131.584C340.272 131.744 340.608 131.989 340.885 132.32C341.173 132.651 341.322 133.083 341.333 133.616C341.333 134.096 341.2 134.528 340.933 134.912C340.666 135.296 340.288 135.6 339.797 135.824C339.317 136.037 338.762 136.144 338.133 136.144ZM347.74 127.072C348.402 127.072 348.999 127.216 349.532 127.504C350.066 127.781 350.482 128.203 350.78 128.768C351.09 129.333 351.244 130.021 351.244 130.832V136H349.804V131.04C349.804 130.165 349.586 129.499 349.148 129.04C348.711 128.571 348.114 128.336 347.356 128.336C346.588 128.336 345.975 128.576 345.516 129.056C345.068 129.536 344.844 130.235 344.844 131.152V136H343.388V124.16H344.844V128.48C345.132 128.032 345.527 127.685 346.028 127.44C346.54 127.195 347.111 127.072 347.74 127.072ZM357.447 136.144C356.625 136.144 355.879 135.957 355.207 135.584C354.545 135.211 354.023 134.683 353.639 134C353.265 133.307 353.079 132.507 353.079 131.6C353.079 130.704 353.271 129.915 353.655 129.232C354.049 128.539 354.583 128.011 355.255 127.648C355.927 127.275 356.679 127.088 357.511 127.088C358.343 127.088 359.095 127.275 359.767 127.648C360.439 128.011 360.967 128.533 361.351 129.216C361.745 129.899 361.943 130.693 361.943 131.6C361.943 132.507 361.74 133.307 361.335 134C360.94 134.683 360.401 135.211 359.719 135.584C359.036 135.957 358.279 136.144 357.447 136.144ZM357.447 134.864C357.969 134.864 358.46 134.741 358.919 134.496C359.377 134.251 359.745 133.883 360.023 133.392C360.311 132.901 360.455 132.304 360.455 131.6C360.455 130.896 360.316 130.299 360.039 129.808C359.761 129.317 359.399 128.955 358.951 128.72C358.503 128.475 358.017 128.352 357.495 128.352C356.961 128.352 356.471 128.475 356.023 128.72C355.585 128.955 355.233 129.317 354.967 129.808C354.7 130.299 354.567 130.896 354.567 131.6C354.567 132.315 354.695 132.917 354.951 133.408C355.217 133.899 355.569 134.267 356.007 134.512C356.444 134.747 356.924 134.864 357.447 134.864ZM365.313 128.848C365.601 128.347 366.028 127.931 366.593 127.6C367.169 127.259 367.836 127.088 368.593 127.088C369.372 127.088 370.076 127.275 370.705 127.648C371.345 128.021 371.846 128.549 372.209 129.232C372.572 129.904 372.753 130.688 372.753 131.584C372.753 132.469 372.572 133.259 372.209 133.952C371.846 134.645 371.345 135.184 370.705 135.568C370.076 135.952 369.372 136.144 368.593 136.144C367.846 136.144 367.185 135.979 366.609 135.648C366.044 135.307 365.612 134.885 365.313 134.384V140.16H363.857V127.232H365.313V128.848ZM371.265 131.584C371.265 130.923 371.132 130.347 370.865 129.856C370.598 129.365 370.236 128.992 369.777 128.736C369.329 128.48 368.833 128.352 368.289 128.352C367.756 128.352 367.26 128.485 366.801 128.752C366.353 129.008 365.99 129.387 365.713 129.888C365.446 130.379 365.313 130.949 365.313 131.6C365.313 132.261 365.446 132.843 365.713 133.344C365.99 133.835 366.353 134.213 366.801 134.48C367.26 134.736 367.756 134.864 368.289 134.864C368.833 134.864 369.329 134.736 369.777 134.48C370.236 134.213 370.598 133.835 370.865 133.344C371.132 132.843 371.265 132.256 371.265 131.584Z" fill="#1E1E1E"/>
<path d="M14 153C21.732 153 28 159.268 28 167C28 174.732 21.732 181 14 181C6.26801 181 0 174.732 0 167C0 159.268 6.26801 153 14 153ZM7.61523 160.848V172H9.07129V167.344H11.2148C12.5161 167.344 13.481 167.04 14.1104 166.432C14.7503 165.813 15.0712 165.04 15.0713 164.112C15.0713 163.152 14.7404 162.368 14.0791 161.76C13.4284 161.152 12.4735 160.848 11.2148 160.848H7.61523ZM21.168 163.072C20.4856 163.072 19.9047 163.211 19.4248 163.488C18.9555 163.766 18.5929 164.155 18.3369 164.656V163.232H16.8809V172H18.3369V167.232C18.3369 165.462 19.1524 164.576 20.7842 164.576H21.168V163.072ZM11.2148 162.048C12.7935 162.048 13.583 162.736 13.583 164.112C13.5829 164.763 13.3908 165.264 13.0068 165.616C12.6228 165.968 12.0254 166.144 11.2148 166.144H9.07129V162.048H11.2148Z" fill="#B44E9E"/>
<g clip-path="url(#clip3_6_611)">
<rect x="38" y="154" width="219" height="27" fill="#B44E9E"/>
</g>
<rect x="38.5" y="154" width="239" height="26" stroke="#B44E9E"/>
<path d="M296.688 165.112C296.688 166.04 296.368 166.813 295.728 167.432C295.099 168.04 294.133 168.344 292.832 168.344H290.688V173H289.232V161.848H292.832C294.091 161.848 295.045 162.152 295.696 162.76C296.357 163.368 296.688 164.152 296.688 165.112ZM292.832 167.144C293.643 167.144 294.24 166.968 294.624 166.616C295.008 166.264 295.2 165.763 295.2 165.112C295.2 163.736 294.411 163.048 292.832 163.048H290.688V167.144H292.832ZM299.954 165.656C300.21 165.155 300.572 164.765 301.042 164.488C301.522 164.211 302.103 164.072 302.786 164.072V165.576H302.402C300.77 165.576 299.954 166.461 299.954 168.232V173H298.498V164.232H299.954V165.656ZM312.466 168.28C312.466 168.557 312.45 168.851 312.418 169.16H305.41C305.464 170.024 305.757 170.701 306.29 171.192C306.834 171.672 307.49 171.912 308.258 171.912C308.888 171.912 309.41 171.768 309.826 171.48C310.253 171.181 310.552 170.787 310.722 170.296H312.29C312.056 171.139 311.586 171.827 310.882 172.36C310.178 172.883 309.304 173.144 308.258 173.144C307.426 173.144 306.68 172.957 306.018 172.584C305.368 172.211 304.856 171.683 304.482 171C304.109 170.307 303.922 169.507 303.922 168.6C303.922 167.693 304.104 166.899 304.466 166.216C304.829 165.533 305.336 165.011 305.986 164.648C306.648 164.275 307.405 164.088 308.258 164.088C309.09 164.088 309.826 164.269 310.466 164.632C311.106 164.995 311.597 165.496 311.938 166.136C312.29 166.765 312.466 167.48 312.466 168.28ZM310.962 167.976C310.962 167.421 310.84 166.947 310.594 166.552C310.349 166.147 310.013 165.843 309.586 165.64C309.17 165.427 308.706 165.32 308.194 165.32C307.458 165.32 306.829 165.555 306.306 166.024C305.794 166.493 305.501 167.144 305.426 167.976H310.962ZM324.932 164.072C325.615 164.072 326.223 164.216 326.756 164.504C327.29 164.781 327.711 165.203 328.02 165.768C328.33 166.333 328.484 167.021 328.484 167.832V173H327.044V168.04C327.044 167.165 326.826 166.499 326.388 166.04C325.962 165.571 325.38 165.336 324.644 165.336C323.887 165.336 323.284 165.581 322.836 166.072C322.388 166.552 322.164 167.251 322.164 168.168V173H320.724V168.04C320.724 167.165 320.506 166.499 320.068 166.04C319.642 165.571 319.06 165.336 318.324 165.336C317.567 165.336 316.964 165.581 316.516 166.072C316.068 166.552 315.844 167.251 315.844 168.168V173H314.388V164.232H315.844V165.496C316.132 165.037 316.516 164.685 316.996 164.44C317.487 164.195 318.026 164.072 318.612 164.072C319.348 164.072 319.999 164.237 320.564 164.568C321.13 164.899 321.551 165.384 321.828 166.024C322.074 165.405 322.479 164.925 323.044 164.584C323.61 164.243 324.239 164.072 324.932 164.072ZM331.625 162.808C331.347 162.808 331.113 162.712 330.921 162.52C330.729 162.328 330.633 162.093 330.633 161.816C330.633 161.539 330.729 161.304 330.921 161.112C331.113 160.92 331.347 160.824 331.625 160.824C331.891 160.824 332.115 160.92 332.297 161.112C332.489 161.304 332.585 161.539 332.585 161.816C332.585 162.093 332.489 162.328 332.297 162.52C332.115 162.712 331.891 162.808 331.625 162.808ZM332.329 164.232V173H330.873V164.232H332.329ZM342.81 168.28C342.81 168.557 342.794 168.851 342.762 169.16H335.754C335.807 170.024 336.101 170.701 336.634 171.192C337.178 171.672 337.834 171.912 338.602 171.912C339.231 171.912 339.754 171.768 340.17 171.48C340.597 171.181 340.895 170.787 341.066 170.296H342.634C342.399 171.139 341.93 171.827 341.226 172.36C340.522 172.883 339.647 173.144 338.602 173.144C337.77 173.144 337.023 172.957 336.362 172.584C335.711 172.211 335.199 171.683 334.826 171C334.453 170.307 334.266 169.507 334.266 168.6C334.266 167.693 334.447 166.899 334.81 166.216C335.173 165.533 335.679 165.011 336.33 164.648C336.991 164.275 337.749 164.088 338.602 164.088C339.434 164.088 340.17 164.269 340.81 164.632C341.45 164.995 341.941 165.496 342.282 166.136C342.634 166.765 342.81 167.48 342.81 168.28ZM341.306 167.976C341.306 167.421 341.183 166.947 340.938 166.552C340.693 166.147 340.357 165.843 339.93 165.64C339.514 165.427 339.05 165.32 338.538 165.32C337.802 165.32 337.173 165.555 336.65 166.024C336.138 166.493 335.845 167.144 335.77 167.976H341.306ZM346.188 165.656C346.444 165.155 346.807 164.765 347.276 164.488C347.756 164.211 348.337 164.072 349.02 164.072V165.576H348.636C347.004 165.576 346.188 166.461 346.188 168.232V173H344.732V164.232H346.188V165.656ZM358.701 168.28C358.701 168.557 358.685 168.851 358.653 169.16H351.645C351.698 170.024 351.991 170.701 352.525 171.192C353.069 171.672 353.725 171.912 354.493 171.912C355.122 171.912 355.645 171.768 356.061 171.48C356.487 171.181 356.786 170.787 356.957 170.296H358.525C358.29 171.139 357.821 171.827 357.117 172.36C356.413 172.883 355.538 173.144 354.493 173.144C353.661 173.144 352.914 172.957 352.253 172.584C351.602 172.211 351.09 171.683 350.717 171C350.343 170.307 350.157 169.507 350.157 168.6C350.157 167.693 350.338 166.899 350.701 166.216C351.063 165.533 351.57 165.011 352.221 164.648C352.882 164.275 353.639 164.088 354.493 164.088C355.325 164.088 356.061 164.269 356.701 164.632C357.341 164.995 357.831 165.496 358.173 166.136C358.525 166.765 358.701 167.48 358.701 168.28ZM357.197 167.976C357.197 167.421 357.074 166.947 356.829 166.552C356.583 166.147 356.247 165.843 355.821 165.64C355.405 165.427 354.941 165.32 354.429 165.32C353.693 165.32 353.063 165.555 352.541 166.024C352.029 166.493 351.735 167.144 351.661 167.976H357.197ZM372.344 165.112C372.344 166.04 372.024 166.813 371.384 167.432C370.755 168.04 369.79 168.344 368.488 168.344H366.344V173H364.888V161.848H368.488C369.747 161.848 370.702 162.152 371.352 162.76C372.014 163.368 372.344 164.152 372.344 165.112ZM368.488 167.144C369.299 167.144 369.896 166.968 370.28 166.616C370.664 166.264 370.856 165.763 370.856 165.112C370.856 163.736 370.067 163.048 368.488 163.048H366.344V167.144H368.488ZM375.61 165.656C375.866 165.155 376.229 164.765 376.698 164.488C377.178 164.211 377.759 164.072 378.442 164.072V165.576H378.058C376.426 165.576 375.61 166.461 375.61 168.232V173H374.154V164.232H375.61V165.656ZM383.947 173.144C383.125 173.144 382.379 172.957 381.707 172.584C381.045 172.211 380.523 171.683 380.139 171C379.765 170.307 379.579 169.507 379.579 168.6C379.579 167.704 379.771 166.915 380.155 166.232C380.549 165.539 381.083 165.011 381.755 164.648C382.427 164.275 383.179 164.088 384.011 164.088C384.843 164.088 385.595 164.275 386.267 164.648C386.939 165.011 387.467 165.533 387.851 166.216C388.245 166.899 388.443 167.693 388.443 168.6C388.443 169.507 388.24 170.307 387.835 171C387.44 171.683 386.901 172.211 386.219 172.584C385.536 172.957 384.779 173.144 383.947 173.144ZM383.947 171.864C384.469 171.864 384.96 171.741 385.419 171.496C385.877 171.251 386.245 170.883 386.523 170.392C386.811 169.901 386.955 169.304 386.955 168.6C386.955 167.896 386.816 167.299 386.539 166.808C386.261 166.317 385.899 165.955 385.451 165.72C385.003 165.475 384.517 165.352 383.995 165.352C383.461 165.352 382.971 165.475 382.523 165.72C382.085 165.955 381.733 166.317 381.467 166.808C381.2 167.299 381.067 167.896 381.067 168.6C381.067 169.315 381.195 169.917 381.451 170.408C381.717 170.899 382.069 171.267 382.507 171.512C382.944 171.747 383.424 171.864 383.947 171.864Z" fill="#1E1E1E"/>
<path d="M14 190C21.732 190 28 196.268 28 204C28 211.732 21.732 218 14 218C6.26801 218 0 211.732 0 204C0 196.268 6.26801 190 14 190ZM16.4521 207.174L12.6836 204.299L16.4521 201.424V207.174ZM19.5996 200.045C19.5996 199.741 19.4266 199.463 19.1543 199.331L16.5596 198.077C16.413 198.007 16.2481 197.984 16.0879 198.012C15.9276 198.039 15.7799 198.115 15.665 198.23L10.6982 202.783L8.53516 201.134C8.43776 201.059 8.31672 201.021 8.19434 201.026C8.0721 201.032 7.95572 201.081 7.86523 201.163L7.1709 201.798C7.11712 201.847 7.07433 201.908 7.04492 201.975C7.0155 202.042 7.00004 202.114 7 202.188C7 202.261 7.01555 202.333 7.04492 202.4C7.07437 202.468 7.11698 202.528 7.1709 202.578L9.04688 204.299L7.1709 206.02C7.11712 206.069 7.07434 206.129 7.04492 206.196C7.01551 206.263 7.00005 206.336 7 206.409C7 206.483 7.01546 206.556 7.04492 206.623C7.07436 206.69 7.11712 206.75 7.1709 206.8L7.86523 207.435C7.95565 207.517 8.07204 207.566 8.19434 207.571C8.31672 207.577 8.43765 207.539 8.53516 207.465L10.6982 205.813L15.665 210.368C15.7793 210.484 15.9267 210.561 16.0869 210.589C16.2473 210.617 16.413 210.593 16.5596 210.522L19.1543 209.267C19.4264 209.135 19.5995 208.858 19.5996 208.554V200.045Z" fill="#B44E9E"/>
<g clip-path="url(#clip4_6_611)">
<rect x="38" y="191" width="234" height="27" fill="#B44E9E"/>
</g>
<rect x="38.5" y="191" width="239" height="26" stroke="#B44E9E"/>
<path d="M298.448 198.848L294.24 210H292.56L288.352 198.848H289.904L293.408 208.464L296.912 198.848H298.448ZM303.581 210.112C302.845 210.112 302.183 209.984 301.597 209.728C301.021 209.461 300.567 209.099 300.237 208.64C299.906 208.171 299.735 207.632 299.725 207.024H301.277C301.33 207.547 301.543 207.989 301.917 208.352C302.301 208.704 302.855 208.88 303.581 208.88C304.274 208.88 304.818 208.709 305.213 208.368C305.618 208.016 305.821 207.568 305.821 207.024C305.821 206.597 305.703 206.251 305.469 205.984C305.234 205.717 304.941 205.515 304.589 205.376C304.237 205.237 303.762 205.088 303.165 204.928C302.429 204.736 301.837 204.544 301.389 204.352C300.951 204.16 300.573 203.861 300.253 203.456C299.943 203.04 299.789 202.485 299.789 201.792C299.789 201.184 299.943 200.645 300.253 200.176C300.562 199.707 300.994 199.344 301.549 199.088C302.114 198.832 302.759 198.704 303.485 198.704C304.53 198.704 305.383 198.965 306.045 199.488C306.717 200.011 307.095 200.704 307.181 201.568H305.581C305.527 201.141 305.303 200.768 304.909 200.448C304.514 200.117 303.991 199.952 303.341 199.952C302.733 199.952 302.237 200.112 301.853 200.432C301.469 200.741 301.277 201.179 301.277 201.744C301.277 202.149 301.389 202.48 301.613 202.736C301.847 202.992 302.13 203.189 302.461 203.328C302.802 203.456 303.277 203.605 303.885 203.776C304.621 203.979 305.213 204.181 305.661 204.384C306.109 204.576 306.493 204.88 306.812 205.296C307.133 205.701 307.293 206.256 307.293 206.96C307.293 207.504 307.149 208.016 306.861 208.496C306.573 208.976 306.146 209.365 305.581 209.664C305.015 209.963 304.349 210.112 303.581 210.112ZM308.891 204.416C308.891 203.328 309.136 202.352 309.627 201.488C310.118 200.613 310.784 199.931 311.627 199.44C312.48 198.949 313.424 198.704 314.459 198.704C315.675 198.704 316.736 198.997 317.643 199.584C318.55 200.171 319.211 201.003 319.627 202.08H317.883C317.574 201.408 317.126 200.891 316.539 200.528C315.963 200.165 315.27 199.984 314.459 199.984C313.68 199.984 312.982 200.165 312.363 200.528C311.744 200.891 311.259 201.408 310.907 202.08C310.555 202.741 310.379 203.52 310.379 204.416C310.379 205.301 310.555 206.08 310.907 206.752C311.259 207.413 311.744 207.925 312.363 208.288C312.982 208.651 313.68 208.832 314.459 208.832C315.27 208.832 315.963 208.656 316.539 208.304C317.126 207.941 317.574 207.424 317.883 206.752H319.627C319.211 207.819 318.55 208.645 317.643 209.232C316.736 209.808 315.675 210.096 314.459 210.096C313.424 210.096 312.48 209.856 311.627 209.376C310.784 208.885 310.118 208.208 309.627 207.344C309.136 206.48 308.891 205.504 308.891 204.416ZM325.619 210.144C324.797 210.144 324.051 209.957 323.379 209.584C322.717 209.211 322.195 208.683 321.811 208C321.437 207.307 321.251 206.507 321.251 205.6C321.251 204.704 321.443 203.915 321.827 203.232C322.221 202.539 322.755 202.011 323.427 201.648C324.099 201.275 324.851 201.088 325.683 201.088C326.515 201.088 327.267 201.275 327.939 201.648C328.611 202.011 329.139 202.533 329.523 203.216C329.917 203.899 330.115 204.693 330.115 205.6C330.115 206.507 329.912 207.307 329.507 208C329.112 208.683 328.573 209.211 327.891 209.584C327.208 209.957 326.451 210.144 325.619 210.144ZM325.619 208.864C326.141 208.864 326.632 208.741 327.091 208.496C327.549 208.251 327.917 207.883 328.195 207.392C328.483 206.901 328.627 206.304 328.627 205.6C328.627 204.896 328.488 204.299 328.211 203.808C327.933 203.317 327.571 202.955 327.123 202.72C326.675 202.475 326.189 202.352 325.667 202.352C325.133 202.352 324.643 202.475 324.195 202.72C323.757 202.955 323.405 203.317 323.139 203.808C322.872 204.299 322.739 204.896 322.739 205.6C322.739 206.315 322.867 206.917 323.123 207.408C323.389 207.899 323.741 208.267 324.179 208.512C324.616 208.747 325.096 208.864 325.619 208.864ZM331.485 205.584C331.485 204.688 331.666 203.904 332.029 203.232C332.392 202.549 332.888 202.021 333.517 201.648C334.157 201.275 334.872 201.088 335.661 201.088C336.344 201.088 336.978 201.248 337.565 201.568C338.152 201.877 338.6 202.288 338.909 202.8V198.16H340.381V210H338.909V208.352C338.621 208.875 338.194 209.307 337.629 209.648C337.064 209.979 336.402 210.144 335.645 210.144C334.866 210.144 334.157 209.952 333.517 209.568C332.888 209.184 332.392 208.645 332.029 207.952C331.666 207.259 331.485 206.469 331.485 205.584ZM338.909 205.6C338.909 204.939 338.776 204.363 338.509 203.872C338.242 203.381 337.88 203.008 337.421 202.752C336.973 202.485 336.477 202.352 335.933 202.352C335.389 202.352 334.893 202.48 334.445 202.736C333.997 202.992 333.64 203.365 333.373 203.856C333.106 204.347 332.973 204.923 332.973 205.584C332.973 206.256 333.106 206.843 333.373 207.344C333.64 207.835 333.997 208.213 334.445 208.48C334.893 208.736 335.389 208.864 335.933 208.864C336.477 208.864 336.973 208.736 337.421 208.48C337.88 208.213 338.242 207.835 338.509 207.344C338.776 206.843 338.909 206.261 338.909 205.6ZM350.841 205.28C350.841 205.557 350.825 205.851 350.793 206.16H343.785C343.839 207.024 344.132 207.701 344.665 208.192C345.209 208.672 345.865 208.912 346.633 208.912C347.263 208.912 347.785 208.768 348.201 208.48C348.628 208.181 348.927 207.787 349.097 207.296H350.665C350.431 208.139 349.961 208.827 349.257 209.36C348.553 209.883 347.679 210.144 346.633 210.144C345.801 210.144 345.055 209.957 344.393 209.584C343.743 209.211 343.231 208.683 342.857 208C342.484 207.307 342.297 206.507 342.297 205.6C342.297 204.693 342.479 203.899 342.841 203.216C343.204 202.533 343.711 202.011 344.361 201.648C345.023 201.275 345.78 201.088 346.633 201.088C347.465 201.088 348.201 201.269 348.841 201.632C349.481 201.995 349.972 202.496 350.313 203.136C350.665 203.765 350.841 204.48 350.841 205.28ZM349.337 204.976C349.337 204.421 349.215 203.947 348.969 203.552C348.724 203.147 348.388 202.843 347.961 202.64C347.545 202.427 347.081 202.32 346.569 202.32C345.833 202.32 345.204 202.555 344.681 203.024C344.169 203.493 343.876 204.144 343.801 204.976H349.337Z" fill="#1E1E1E"/>
<path d="M14 227C21.732 227 28 233.268 28 241C28 248.732 21.732 255 14 255C6.26801 255 0 248.732 0 241C0 233.268 6.26801 227 14 227ZM17.9941 235C17.81 234.998 17.626 235.014 17.4463 235.049C17.0265 235.127 16.4474 235.31 15.6895 235.711C14.3773 235.448 13.0124 235.448 11.7002 235.711C10.9424 235.311 10.3632 235.127 9.94238 235.049C9.76294 235.014 9.57937 234.998 9.39551 235C9.31183 235.002 9.22836 235.011 9.14648 235.026L9.13574 235.028L9.13086 235.029H9.12793L9.27539 235.475L9.12793 235.03C9.0525 235.049 8.9822 235.082 8.92285 235.126C8.86373 235.17 8.81625 235.225 8.78418 235.286C8.46753 235.897 8.40692 236.584 8.61328 237.229C8.07871 237.787 7.78734 238.489 7.79004 239.212C7.79006 240.648 8.28169 241.614 9.12012 242.234C9.70739 242.669 10.4207 242.9 11.1357 243.032C11.022 243.317 10.9791 243.618 11.0107 243.918V244.472C10.574 244.55 10.2714 244.525 10.0557 244.464C9.78619 244.387 9.5785 244.233 9.37988 244.011C9.27641 243.891 9.18037 243.766 9.09082 243.639L9.0293 243.553C8.95216 243.442 8.87209 243.333 8.78906 243.226C8.58507 242.966 8.28156 242.64 7.79199 242.529L7.27246 242.412L7 243.307L7.51953 243.425C7.60538 243.443 7.71696 243.512 7.90039 243.744C7.97106 243.836 8.03933 243.929 8.10449 244.023L8.17773 244.125C8.27865 244.266 8.39509 244.422 8.5293 244.573C8.8009 244.878 9.17121 245.187 9.7207 245.343C10.0963 245.45 10.5235 245.476 11.0107 245.411V247.138C11.0108 247.26 11.0673 247.378 11.168 247.465C11.2686 247.552 11.4055 247.6 11.5479 247.6H15.8428C15.9849 247.6 16.1211 247.551 16.2217 247.465C16.3223 247.378 16.3789 247.26 16.3789 247.138V243.844C16.3789 243.552 16.3641 243.284 16.2686 243.035C16.9803 242.906 17.6874 242.674 18.2715 242.239C19.1089 241.614 19.5996 240.64 19.5996 239.195V239.194C19.5973 238.477 19.306 237.783 18.7754 237.229C18.9815 236.585 18.921 235.898 18.6045 235.287C18.5726 235.226 18.5259 235.17 18.4668 235.126C18.4077 235.082 18.3379 235.049 18.2627 235.03L18.1152 235.475C18.2623 235.031 18.2608 235.03 18.2598 235.03L18.2578 235.029L18.2539 235.028L18.2441 235.026L18.1631 235.012C18.1072 235.004 18.0507 235 17.9941 235Z" fill="#B44E9E"/>
<g clip-path="url(#clip5_6_611)">
<rect x="38" y="227.5" width="235.2" height="27" fill="#B44E9E"/>
</g>
<rect x="38.5" y="228" width="239" height="26" stroke="#B44E9E"/>
<path d="M295.824 242.52H290.96L290.064 245H288.528L292.56 233.912H294.24L298.256 245H296.72L295.824 242.52ZM295.408 241.336L293.392 235.704L291.376 241.336H295.408ZM303.117 245.144C302.445 245.144 301.843 245.032 301.309 244.808C300.776 244.573 300.355 244.253 300.045 243.848C299.736 243.432 299.565 242.957 299.533 242.424H301.037C301.08 242.861 301.283 243.219 301.645 243.496C302.019 243.773 302.504 243.912 303.101 243.912C303.656 243.912 304.093 243.789 304.413 243.544C304.733 243.299 304.893 242.989 304.893 242.616C304.893 242.232 304.723 241.949 304.381 241.768C304.04 241.576 303.512 241.389 302.797 241.208C302.147 241.037 301.613 240.867 301.197 240.696C300.792 240.515 300.44 240.253 300.141 239.912C299.853 239.56 299.709 239.101 299.709 238.536C299.709 238.088 299.843 237.677 300.109 237.304C300.376 236.931 300.755 236.637 301.245 236.424C301.736 236.2 302.296 236.088 302.925 236.088C303.896 236.088 304.68 236.333 305.277 236.824C305.875 237.315 306.195 237.987 306.237 238.84H304.781C304.749 238.381 304.563 238.013 304.221 237.736C303.891 237.459 303.443 237.32 302.877 237.32C302.355 237.32 301.939 237.432 301.629 237.656C301.32 237.88 301.165 238.173 301.165 238.536C301.165 238.824 301.256 239.064 301.437 239.256C301.629 239.437 301.864 239.587 302.141 239.704C302.429 239.811 302.824 239.933 303.325 240.072C303.955 240.243 304.467 240.413 304.861 240.584C305.256 240.744 305.592 240.989 305.869 241.32C306.157 241.651 306.307 242.083 306.317 242.616C306.317 243.096 306.184 243.528 305.917 243.912C305.651 244.296 305.272 244.6 304.781 244.824C304.301 245.037 303.747 245.144 303.117 245.144ZM310.149 237.432V242.6C310.149 243.027 310.239 243.331 310.421 243.512C310.602 243.683 310.917 243.768 311.365 243.768H312.437V245H311.125C310.314 245 309.706 244.813 309.301 244.44C308.895 244.067 308.693 243.453 308.693 242.6V237.432H307.557V236.232H308.693V234.024H310.149V236.232H312.437V237.432H310.149ZM315.657 237.656C315.913 237.155 316.275 236.765 316.745 236.488C317.225 236.211 317.806 236.072 318.489 236.072V237.576H318.105C316.473 237.576 315.657 238.461 315.657 240.232V245H314.201V236.232H315.657V237.656ZM323.994 245.144C323.172 245.144 322.426 244.957 321.754 244.584C321.092 244.211 320.57 243.683 320.186 243C319.812 242.307 319.626 241.507 319.626 240.6C319.626 239.704 319.818 238.915 320.202 238.232C320.596 237.539 321.13 237.011 321.802 236.648C322.474 236.275 323.226 236.088 324.058 236.088C324.89 236.088 325.642 236.275 326.314 236.648C326.986 237.011 327.514 237.533 327.898 238.216C328.292 238.899 328.49 239.693 328.49 240.6C328.49 241.507 328.287 242.307 327.882 243C327.487 243.683 326.948 244.211 326.266 244.584C325.583 244.957 324.826 245.144 323.994 245.144ZM323.994 243.864C324.516 243.864 325.007 243.741 325.466 243.496C325.924 243.251 326.292 242.883 326.57 242.392C326.858 241.901 327.002 241.304 327.002 240.6C327.002 239.896 326.863 239.299 326.586 238.808C326.308 238.317 325.946 237.955 325.498 237.72C325.05 237.475 324.564 237.352 324.042 237.352C323.508 237.352 323.018 237.475 322.57 237.72C322.132 237.955 321.78 238.317 321.514 238.808C321.247 239.299 321.114 239.896 321.114 240.6C321.114 241.315 321.242 241.917 321.498 242.408C321.764 242.899 322.116 243.267 322.554 243.512C322.991 243.747 323.471 243.864 323.994 243.864ZM331.908 242.984L330.116 247.288H329.14L330.308 242.984H331.908ZM346.289 237.08C345.98 236.429 345.532 235.928 344.945 235.576C344.359 235.213 343.676 235.032 342.897 235.032C342.119 235.032 341.415 235.213 340.785 235.576C340.167 235.928 339.676 236.44 339.313 237.112C338.961 237.773 338.785 238.541 338.785 239.416C338.785 240.291 338.961 241.059 339.313 241.72C339.676 242.381 340.167 242.893 340.785 243.256C341.415 243.608 342.119 243.784 342.897 243.784C343.985 243.784 344.881 243.459 345.585 242.808C346.289 242.157 346.7 241.277 346.817 240.168H342.369V238.984H348.369V240.104C348.284 241.021 347.996 241.864 347.505 242.632C347.015 243.389 346.369 243.992 345.569 244.44C344.769 244.877 343.879 245.096 342.897 245.096C341.863 245.096 340.919 244.856 340.065 244.376C339.212 243.885 338.535 243.208 338.033 242.344C337.543 241.48 337.297 240.504 337.297 239.416C337.297 238.328 337.543 237.352 338.033 236.488C338.535 235.613 339.212 234.936 340.065 234.456C340.919 233.965 341.863 233.72 342.897 233.72C344.081 233.72 345.127 234.013 346.033 234.6C346.951 235.187 347.617 236.013 348.033 237.08H346.289ZM351.047 234.808C350.769 234.808 350.535 234.712 350.343 234.52C350.151 234.328 350.055 234.093 350.055 233.816C350.055 233.539 350.151 233.304 350.343 233.112C350.535 232.92 350.769 232.824 351.047 232.824C351.313 232.824 351.537 232.92 351.719 233.112C351.911 233.304 352.007 233.539 352.007 233.816C352.007 234.093 351.911 234.328 351.719 234.52C351.537 234.712 351.313 234.808 351.047 234.808ZM351.751 236.232V245H350.295V236.232H351.751ZM356.008 237.432V242.6C356.008 243.027 356.099 243.331 356.28 243.512C356.461 243.683 356.776 243.768 357.224 243.768H358.296V245H356.984C356.173 245 355.565 244.813 355.16 244.44C354.755 244.067 354.552 243.453 354.552 242.6V237.432H353.416V236.232H354.552V234.024H356.008V236.232H358.296V237.432H356.008ZM361.564 242.984L359.772 247.288H358.796L359.964 242.984H361.564ZM374.362 233.848V235.032H371.322V245H369.866V235.032H366.81V233.848H374.362ZM375.61 240.584C375.61 239.688 375.791 238.904 376.154 238.232C376.517 237.549 377.013 237.021 377.642 236.648C378.282 236.275 378.991 236.088 379.77 236.088C380.538 236.088 381.205 236.253 381.77 236.584C382.335 236.915 382.757 237.331 383.034 237.832V236.232H384.506V245H383.034V243.368C382.746 243.88 382.314 244.307 381.738 244.648C381.173 244.979 380.511 245.144 379.754 245.144C378.975 245.144 378.271 244.952 377.642 244.568C377.013 244.184 376.517 243.645 376.154 242.952C375.791 242.259 375.61 241.469 375.61 240.584ZM383.034 240.6C383.034 239.939 382.901 239.363 382.634 238.872C382.367 238.381 382.005 238.008 381.546 237.752C381.098 237.485 380.602 237.352 380.058 237.352C379.514 237.352 379.018 237.48 378.57 237.736C378.122 237.992 377.765 238.365 377.498 238.856C377.231 239.347 377.098 239.923 377.098 240.584C377.098 241.256 377.231 241.843 377.498 242.344C377.765 242.835 378.122 243.213 378.57 243.48C379.018 243.736 379.514 243.864 380.058 243.864C380.602 243.864 381.098 243.736 381.546 243.48C382.005 243.213 382.367 242.835 382.634 242.344C382.901 241.843 383.034 241.261 383.034 240.6ZM387.718 234.808C387.441 234.808 387.206 234.712 387.014 234.52C386.822 234.328 386.726 234.093 386.726 233.816C386.726 233.539 386.822 233.304 387.014 233.112C387.206 232.92 387.441 232.824 387.718 232.824C387.985 232.824 388.209 232.92 388.39 233.112C388.582 233.304 388.678 233.539 388.678 233.816C388.678 234.093 388.582 234.328 388.39 234.52C388.209 234.712 387.985 234.808 387.718 234.808ZM388.422 236.232V245H386.966V236.232H388.422ZM392.36 233.16V245H390.904V233.16H392.36ZM406.521 236.232L403.785 245H402.281L400.169 238.04L398.057 245H396.553L393.801 236.232H395.289L397.305 243.592L399.481 236.232H400.969L403.097 243.608L405.081 236.232H406.521ZM408.718 234.808C408.441 234.808 408.206 234.712 408.014 234.52C407.822 234.328 407.726 234.093 407.726 233.816C407.726 233.539 407.822 233.304 408.014 233.112C408.206 232.92 408.441 232.824 408.718 232.824C408.985 232.824 409.209 232.92 409.39 233.112C409.582 233.304 409.678 233.539 409.678 233.816C409.678 234.093 409.582 234.328 409.39 234.52C409.209 234.712 408.985 234.808 408.718 234.808ZM409.422 236.232V245H407.966V236.232H409.422ZM416.176 236.072C417.243 236.072 418.107 236.397 418.768 237.048C419.429 237.688 419.76 238.616 419.76 239.832V245H418.32V240.04C418.32 239.165 418.101 238.499 417.664 238.04C417.227 237.571 416.629 237.336 415.872 237.336C415.104 237.336 414.491 237.576 414.032 238.056C413.584 238.536 413.36 239.235 413.36 240.152V245H411.904V236.232H413.36V237.48C413.648 237.032 414.037 236.685 414.528 236.44C415.029 236.195 415.579 236.072 416.176 236.072ZM421.594 240.584C421.594 239.688 421.776 238.904 422.138 238.232C422.501 237.549 422.997 237.021 423.626 236.648C424.266 236.275 424.981 236.088 425.77 236.088C426.453 236.088 427.088 236.248 427.674 236.568C428.261 236.877 428.709 237.288 429.018 237.8V233.16H430.49V245H429.018V243.352C428.73 243.875 428.304 244.307 427.738 244.648C427.173 244.979 426.512 245.144 425.754 245.144C424.976 245.144 424.266 244.952 423.626 244.568C422.997 244.184 422.501 243.645 422.138 242.952C421.776 242.259 421.594 241.469 421.594 240.584ZM429.018 240.6C429.018 239.939 428.885 239.363 428.618 238.872C428.352 238.381 427.989 238.008 427.53 237.752C427.082 237.485 426.586 237.352 426.042 237.352C425.498 237.352 425.002 237.48 424.554 237.736C424.106 237.992 423.749 238.365 423.482 238.856C423.216 239.347 423.082 239.923 423.082 240.584C423.082 241.256 423.216 241.843 423.482 242.344C423.749 242.835 424.106 243.213 424.554 243.48C425.002 243.736 425.498 243.864 426.042 243.864C426.586 243.864 427.082 243.736 427.53 243.48C427.989 243.213 428.352 242.835 428.618 242.344C428.885 241.843 429.018 241.261 429.018 240.6Z" fill="#1E1E1E"/>
<defs>
<clipPath id="clip0_6_611">
<rect x="38" y="42.5" width="242" height="27" fill="white"/>
</clipPath>
<clipPath id="clip1_6_611">
<rect x="38" y="79.5" width="240" height="27" fill="white"/>
</clipPath>
<clipPath id="clip2_6_611">
<rect x="38" y="116.5" width="240" height="27" fill="white"/>
</clipPath>
<clipPath id="clip3_6_611">
<rect x="38" y="153.5" width="240" height="27" fill="white"/>
</clipPath>
<clipPath id="clip4_6_611">
<rect x="38" y="190.5" width="240" height="27" fill="white"/>
</clipPath>
<clipPath id="clip5_6_611">
<rect x="38" y="227.5" width="240" height="27" fill="white"/>
</clipPath>
</defs>
</svg>
