<svg width="55" height="54" viewBox="0 0 55 54" fill="none" xmlns="http://www.w3.org/2000/svg">
<path d="M27.5 0C42.4117 0 54.5 12.0883 54.5 27C54.5 41.9117 42.4117 54 27.5 54C12.5883 54 0.5 41.9117 0.5 27C0.5 12.0883 12.5883 0 27.5 0ZM31.6299 22.0176C30.5952 22.014 29.5694 22.2143 28.6123 22.6074C27.6552 23.0005 26.7853 23.5789 26.0518 24.3086C25.3183 25.0383 24.7359 25.9054 24.3379 26.8604C23.9399 27.8153 23.7343 28.8395 23.7324 29.874V37.8125C23.7325 38.1347 23.8601 38.4441 24.0879 38.6719C24.3157 38.8996 24.6251 39.0273 24.9473 39.0273H27.7822C28.1044 39.0273 28.4138 38.8997 28.6416 38.6719C28.8694 38.4441 28.997 38.1347 28.9971 37.8125V29.874C28.9969 29.5063 29.074 29.1425 29.2236 28.8066C29.3734 28.4706 29.5925 28.1696 29.8662 27.9238C30.1401 27.678 30.4632 27.4927 30.8135 27.3799C31.1637 27.2671 31.5336 27.2297 31.8994 27.2695C32.5554 27.3522 33.1583 27.6724 33.5938 28.1699C34.0292 28.6675 34.2668 29.3076 34.2617 29.9688V37.8125C34.2618 38.1347 34.3904 38.4441 34.6182 38.6719C34.846 38.8995 35.1554 39.0273 35.4775 39.0273H38.3125C38.6344 39.0273 38.9432 38.8994 39.1709 38.6719C39.3987 38.4441 39.5273 38.1347 39.5273 37.8125V29.874C39.5255 28.8395 39.3198 27.8153 38.9219 26.8604C38.5239 25.9054 37.9414 25.0383 37.208 24.3086C36.4745 23.5788 35.6036 23.0005 34.6465 22.6074C33.6895 22.2145 32.6644 22.0141 31.6299 22.0176ZM16.4424 23.2314C15.7713 23.2314 15.2275 23.7763 15.2275 24.4473V37.8115C15.2276 38.4825 15.7714 39.0264 16.4424 39.0264H20.0869C20.7579 39.0264 21.3027 38.4825 21.3027 37.8115V24.4473C21.3027 23.7763 20.7579 23.2314 20.0869 23.2314H16.4424ZM18.2646 14.7275C16.5872 14.7276 15.2276 16.0872 15.2275 17.7646C15.2275 19.4421 16.5871 20.8017 18.2646 20.8018C19.9422 20.8018 21.3027 19.4422 21.3027 17.7646C21.3027 16.0871 19.9422 14.7275 18.2646 14.7275Z" fill="#B44E9E"/>
</svg>
