<svg width="55" height="54" viewBox="0 0 55 54" fill="none" xmlns="http://www.w3.org/2000/svg">
<rect x="0.5" width="54" height="54" rx="27" fill="#B44E9E"/>
<path d="M27.5 26.15C26.5054 26.15 25.5516 25.7022 24.8483 24.9052C24.1451 24.1082 23.75 23.0272 23.75 21.9C23.75 20.7728 24.1451 19.6918 24.8483 18.8948C25.5516 18.0978 26.5054 17.65 27.5 17.65C28.4946 17.65 29.4484 18.0978 30.1516 18.8948C30.8549 19.6918 31.25 20.7728 31.25 21.9C31.25 22.4581 31.153 23.0108 30.9645 23.5264C30.7761 24.042 30.4999 24.5106 30.1516 24.9052C29.8034 25.2999 29.39 25.6129 28.9351 25.8265C28.4801 26.0401 27.9925 26.15 27.5 26.15ZM27.5 10C24.7152 10 22.0445 11.2537 20.0754 13.4854C18.1062 15.7171 17 18.7439 17 21.9C17 30.825 27.5 44 27.5 44C27.5 44 38 30.825 38 21.9C38 18.7439 36.8938 15.7171 34.9246 13.4854C32.9555 11.2537 30.2848 10 27.5 10Z" fill="#F6F5F0"/>
</svg>
