<svg width="55" height="54" viewBox="0 0 55 54" fill="none" xmlns="http://www.w3.org/2000/svg">
<path d="M27.5 0C42.4117 0 54.5 12.0883 54.5 27C54.5 41.9117 42.4117 54 27.5 54C12.5883 54 0.5 41.9117 0.5 27C0.5 12.0883 12.5883 0 27.5 0ZM15.7178 14.9541C13.549 14.9543 11.7727 16.6976 11.7725 18.8691V36.3574C11.7725 38.5292 13.5488 40.2722 15.7178 40.2725H39.2812C41.4504 40.2725 43.2266 38.5293 43.2266 36.3574V18.8691C43.2263 16.6974 41.4502 14.9541 39.2812 14.9541H15.7178ZM25.4502 29.4805L25.4561 29.4844C26.0693 29.8646 26.778 30.0654 27.5 30.0654C28.2219 30.0654 28.9307 29.8645 29.5439 29.4844L29.5488 29.4805L41.2266 22.1377V36.3574C41.2266 37.4051 40.3656 38.2725 39.2812 38.2725H15.7178C14.6336 38.2722 13.7725 37.4049 13.7725 36.3574V22.1367L25.4502 29.4805ZM39.2812 16.9541C40.3654 16.9541 41.2263 17.8217 41.2266 18.8691V19.7744L28.4893 27.7842C28.1935 27.9674 27.8506 28.0654 27.5 28.0654C27.193 28.0654 26.8917 27.9903 26.623 27.8486L26.5098 27.7842L13.7725 19.7744V18.8691C13.7727 17.8218 14.6338 16.9543 15.7178 16.9541H39.2812Z" fill="#B44E9E"/>
</svg>
