<svg width="55" height="54" viewBox="0 0 55 54" fill="none" xmlns="http://www.w3.org/2000/svg">
<rect x="0.5" width="54" height="54" rx="27" fill="#B44E9E"/>
<path d="M33.454 32.1323L34.2022 31.4467L32.4646 29.8363L31.7197 30.5219L33.454 32.1323ZM36.711 31.1591L39.8465 32.7317L41.0197 30.7369L37.8858 29.1658L36.711 31.1591ZM40.4487 35.8555L38.1188 37.9941L39.8531 39.603L42.183 37.4659L40.4487 35.8555ZM36.6979 38.6812C34.3187 38.8871 28.1658 38.7039 21.5009 32.5924L19.7649 34.2013C27.0369 40.8713 33.9594 41.1982 36.9276 40.9424L36.6979 38.6812ZM21.5009 32.5924C15.1494 26.7654 14.096 21.8662 13.9647 19.7397L11.5068 19.8684C11.6709 22.5442 12.9754 27.9747 19.7649 34.2013L21.5009 32.5924ZM23.757 23.2389L24.2279 22.8061L22.4952 21.1972L22.0243 21.6286L23.757 23.2389ZM24.602 17.3045L22.5346 14.7558L20.564 16.1179L22.6314 18.6651L24.602 17.3045ZM15.576 14.2003L13 16.5614L14.7359 18.1717L17.3103 15.8107L15.576 14.2003ZM22.8906 22.4338C22.021 21.6286 22.021 21.6286 22.021 21.6316H22.0177L22.0128 21.6377C21.9348 21.7102 21.865 21.7898 21.8044 21.8753C21.7158 21.9964 21.619 22.1553 21.537 22.3566C21.3373 22.8762 21.2875 23.4348 21.3926 23.9775C21.6125 25.2867 22.5904 27.0167 25.0942 29.3142L26.8302 27.7038C24.4855 25.5546 23.9276 24.2469 23.8242 23.6294C23.775 23.3358 23.8259 23.1905 23.8406 23.1572C23.8505 23.137 23.8505 23.134 23.8406 23.1481C23.826 23.169 23.8096 23.1888 23.7914 23.2072L23.775 23.2223L23.7586 23.2359L22.8906 22.4338ZM25.0942 29.3142C27.5997 31.6117 29.485 32.5077 30.9059 32.7074C31.6327 32.8104 32.2185 32.7286 32.6632 32.5758C32.9122 32.4917 33.1449 32.3711 33.3523 32.2186L33.4343 32.1505L33.4458 32.1414L33.4507 32.1368L33.4524 32.1338C33.4524 32.1338 33.454 32.1323 32.586 31.3271C31.7164 30.5219 31.7213 30.5204 31.7213 30.5204L31.7246 30.5174L31.7279 30.5144L31.7378 30.5068L31.7542 30.4917L31.8165 30.4463C31.8318 30.4372 31.828 30.4382 31.805 30.4493C31.764 30.4629 31.6032 30.5098 31.28 30.4644C30.6007 30.3676 29.1732 29.853 26.8302 27.7038L25.0942 29.3142ZM22.5346 14.7542C20.861 12.6959 17.5728 12.369 15.576 14.2003L17.3103 15.8107C18.1832 15.01 19.7321 15.0933 20.564 16.1179L22.5346 14.7542ZM13.9664 19.7412C13.9336 19.2176 14.1945 18.6697 14.7359 18.1732L12.9983 16.5629C12.1172 17.3711 11.4232 18.5153 11.5068 19.8684L13.9664 19.7412ZM38.1188 37.9941C37.6692 38.4088 37.1835 38.6419 36.6995 38.6828L36.9276 40.9424C38.1335 40.838 39.1197 40.278 39.8547 39.6045L38.1188 37.9941ZM24.2279 22.8061C25.844 21.3244 25.9638 18.983 24.6036 17.306L22.633 18.6666C23.2943 19.4824 23.1958 20.5525 22.4936 21.1987L24.2279 22.8061ZM39.8482 32.7332C41.1887 33.4052 41.3971 34.9883 40.4503 35.857L42.1863 37.4659C44.3849 35.4484 43.7073 32.0839 41.0213 30.7384L39.8482 32.7332ZM34.2022 31.4482C34.8323 30.87 35.8463 30.7278 36.7126 31.1606L37.8874 29.1673C36.1088 28.2744 33.9036 28.5211 32.4663 29.8378L34.2022 31.4482Z" fill="#F6F5F0"/>
</svg>
